# MagicaVoxel @ Ephtracy

# group
o 

# material
mtllib stall.mtl
usemtl palette

# normals
vn -1 0 0
vn 1 0 0
vn 0 0 1
vn 0 0 -1
vn 0 -1 0
vn 0 1 0

# texcoords
vt 0.126953 0.5
vt 0.193359 0.5

# verts
v 0 0 0
v 0 0 -0.6
v 0 0.4 -0.1
v 0 0.4 -0.5
v 0 1.6 0
v 0 1.6 -0.1
v 0 1.7 0
v 0 1.7 -0.1
v 0 1.7 -0.3
v 0 1.8 -0.1
v 0 1.8 -0.3
v 0 1.8 -0.5
v 0 1.9 -0.3
v 0 1.9 -0.5
v 0 1.9 -0.6
v 0 2 -0.5
v 0 2 -0.6
v 1.9 0.4 0
v 1.9 0.4 -0.1
v 1.9 0.4 -0.5
v 1.9 0.4 -0.6
v 1.9 1.6 0
v 1.9 1.6 -0.1
v 1.9 1.8 -0.5
v 1.9 1.9 -0.5
v 1.9 1.9 -0.6
v 0.1 0.4 0
v 0.1 0.4 -0.1
v 0.1 0.4 -0.5
v 0.1 0.4 -0.6
v 0.1 1.6 0
v 0.1 1.6 -0.1
v 0.1 1.8 -0.5
v 0.1 1.9 -0.5
v 0.1 1.9 -0.6
v 2 0 0
v 2 0 -0.6
v 2 0.4 -0.1
v 2 0.4 -0.5
v 2 1.6 0
v 2 1.6 -0.1
v 2 1.7 0
v 2 1.7 -0.1
v 2 1.7 -0.3
v 2 1.8 -0.1
v 2 1.8 -0.3
v 2 1.8 -0.5
v 2 1.9 -0.3
v 2 1.9 -0.5
v 2 1.9 -0.6
v 2 2 -0.5
v 2 2 -0.6
v 0 0 0
v 0 1.6 0
v 0 1.7 0
v 0.1 0.4 0
v 0.1 1.6 0
v 1.9 0.4 0
v 1.9 1.6 0
v 2 0 0
v 2 1.6 0
v 2 1.7 0
v 0 1.7 -0.1
v 0 1.8 -0.1
v 2 1.7 -0.1
v 2 1.8 -0.1
v 0 1.8 -0.3
v 0 1.9 -0.3
v 2 1.8 -0.3
v 2 1.9 -0.3
v 0 0.4 -0.5
v 0 1.8 -0.5
v 0 1.9 -0.5
v 0 2 -0.5
v 0.1 0.4 -0.5
v 0.1 1.8 -0.5
v 1.9 0.4 -0.5
v 1.9 1.8 -0.5
v 2 0.4 -0.5
v 2 1.8 -0.5
v 2 1.9 -0.5
v 2 2 -0.5
v 0 0.4 -0.1
v 0 1.6 -0.1
v 0 1.7 -0.1
v 0.1 0.4 -0.1
v 0.1 1.6 -0.1
v 1.9 0.4 -0.1
v 1.9 1.6 -0.1
v 2 0.4 -0.1
v 2 1.6 -0.1
v 2 1.7 -0.1
v 0 1.7 -0.3
v 0 1.8 -0.3
v 2 1.7 -0.3
v 2 1.8 -0.3
v 0.1 1.8 -0.5
v 0.1 1.9 -0.5
v 1.9 1.8 -0.5
v 1.9 1.9 -0.5
v 0 0 -0.6
v 0 1.9 -0.6
v 0 2 -0.6
v 0.1 0.4 -0.6
v 0.1 1.9 -0.6
v 1.9 0.4 -0.6
v 1.9 1.9 -0.6
v 2 0 -0.6
v 2 1.9 -0.6
v 2 2 -0.6
v 0 0 0
v 2 0 0
v 0 0 -0.6
v 2 0 -0.6
v 0.1 1.6 0
v 1.9 1.6 0
v 0.1 1.6 -0.1
v 1.9 1.6 -0.1
v 0 1.7 -0.1
v 2 1.7 -0.1
v 0 1.7 -0.3
v 2 1.7 -0.3
v 0 1.8 -0.3
v 2 1.8 -0.3
v 0 1.8 -0.5
v 0.1 1.8 -0.5
v 1.9 1.8 -0.5
v 2 1.8 -0.5
v 0.1 1.9 -0.5
v 1.9 1.9 -0.5
v 0.1 1.9 -0.6
v 1.9 1.9 -0.6
v 0.1 0.4 0
v 1.9 0.4 0
v 0 0.4 -0.1
v 0.1 0.4 -0.1
v 1.9 0.4 -0.1
v 2 0.4 -0.1
v 0 0.4 -0.5
v 0.1 0.4 -0.5
v 1.9 0.4 -0.5
v 2 0.4 -0.5
v 0.1 0.4 -0.6
v 1.9 0.4 -0.6
v 0 1.7 0
v 2 1.7 0
v 0 1.7 -0.1
v 2 1.7 -0.1
v 0 1.8 -0.1
v 2 1.8 -0.1
v 0 1.8 -0.3
v 2 1.8 -0.3
v 0 1.9 -0.3
v 2 1.9 -0.3
v 0 1.9 -0.5
v 2 1.9 -0.5
v 0 2 -0.5
v 2 2 -0.5
v 0 2 -0.6
v 2 2 -0.6

# faces
f 3/1/1 2/1/1 1/1/1
f 4/1/1 2/1/1 3/1/1
f 5/1/1 3/1/1 1/1/1
f 6/1/1 3/1/1 5/1/1
f 7/2/1 6/2/1 5/2/1
f 8/2/1 6/2/1 7/2/1
f 10/2/1 9/2/1 8/2/1
f 11/2/1 9/2/1 10/2/1
f 12/1/1 2/1/1 4/1/1
f 13/2/1 12/2/1 11/2/1
f 14/1/1 2/1/1 12/1/1
f 14/2/1 12/2/1 13/2/1
f 15/1/1 2/1/1 14/1/1
f 16/2/1 15/2/1 14/2/1
f 17/2/1 15/2/1 16/2/1
f 22/1/1 19/1/1 18/1/1
f 23/1/1 19/1/1 22/1/1
f 24/1/1 21/1/1 20/1/1
f 25/1/1 21/1/1 24/1/1
f 26/1/1 21/1/1 25/1/1
f 27/1/2 28/1/2 31/1/2
f 31/1/2 28/1/2 32/1/2
f 29/1/2 30/1/2 33/1/2
f 33/1/2 30/1/2 34/1/2
f 34/1/2 30/1/2 35/1/2
f 36/1/2 37/1/2 38/1/2
f 38/1/2 37/1/2 39/1/2
f 36/1/2 38/1/2 40/1/2
f 40/1/2 38/1/2 41/1/2
f 40/2/2 41/2/2 42/2/2
f 42/2/2 41/2/2 43/2/2
f 43/2/2 44/2/2 45/2/2
f 45/2/2 44/2/2 46/2/2
f 39/1/2 37/1/2 47/1/2
f 46/2/2 47/2/2 48/2/2
f 47/1/2 37/1/2 49/1/2
f 48/2/2 47/2/2 49/2/2
f 49/1/2 37/1/2 50/1/2
f 49/2/2 50/2/2 51/2/2
f 51/2/2 50/2/2 52/2/2
f 56/1/3 54/1/3 53/1/3
f 57/2/3 55/2/3 54/2/3
f 57/1/3 54/1/3 56/1/3
f 58/1/3 56/1/3 53/1/3
f 59/2/3 55/2/3 57/2/3
f 60/1/3 58/1/3 53/1/3
f 60/1/3 59/1/3 58/1/3
f 61/2/3 55/2/3 59/2/3
f 61/1/3 59/1/3 60/1/3
f 62/2/3 55/2/3 61/2/3
f 65/2/3 64/2/3 63/2/3
f 66/2/3 64/2/3 65/2/3
f 69/2/3 68/2/3 67/2/3
f 70/2/3 68/2/3 69/2/3
f 75/1/3 72/1/3 71/1/3
f 76/1/3 72/1/3 75/1/3
f 79/1/3 78/1/3 77/1/3
f 80/1/3 78/1/3 79/1/3
f 81/2/3 74/2/3 73/2/3
f 82/2/3 74/2/3 81/2/3
f 83/1/4 84/1/4 86/1/4
f 84/2/4 85/2/4 87/2/4
f 86/1/4 84/1/4 87/1/4
f 87/2/4 85/2/4 89/2/4
f 88/1/4 89/1/4 90/1/4
f 89/2/4 85/2/4 91/2/4
f 90/1/4 89/1/4 91/1/4
f 91/2/4 85/2/4 92/2/4
f 93/2/4 94/2/4 95/2/4
f 95/2/4 94/2/4 96/2/4
f 97/2/4 98/2/4 99/2/4
f 99/2/4 98/2/4 100/2/4
f 101/1/4 102/1/4 104/1/4
f 102/2/4 103/2/4 105/2/4
f 104/1/4 102/1/4 105/1/4
f 101/1/4 104/1/4 106/1/4
f 105/2/4 103/2/4 107/2/4
f 101/1/4 106/1/4 108/1/4
f 106/1/4 107/1/4 108/1/4
f 107/2/4 103/2/4 109/2/4
f 108/1/4 107/1/4 109/1/4
f 109/2/4 103/2/4 110/2/4
f 113/1/5 112/1/5 111/1/5
f 114/1/5 112/1/5 113/1/5
f 117/2/5 116/2/5 115/2/5
f 118/2/5 116/2/5 117/2/5
f 121/2/5 120/2/5 119/2/5
f 122/2/5 120/2/5 121/2/5
f 125/2/5 124/2/5 123/2/5
f 126/2/5 124/2/5 125/2/5
f 127/2/5 124/2/5 126/2/5
f 128/2/5 124/2/5 127/2/5
f 131/2/5 130/2/5 129/2/5
f 132/2/5 130/2/5 131/2/5
f 133/1/6 134/1/6 136/1/6
f 136/1/6 134/1/6 137/1/6
f 135/1/6 136/1/6 139/1/6
f 137/1/6 138/1/6 139/1/6
f 136/1/6 137/1/6 139/1/6
f 139/1/6 138/1/6 140/1/6
f 140/1/6 138/1/6 141/1/6
f 141/1/6 138/1/6 142/1/6
f 140/1/6 141/1/6 143/1/6
f 143/1/6 141/1/6 144/1/6
f 145/2/6 146/2/6 147/2/6
f 147/2/6 146/2/6 148/2/6
f 149/2/6 150/2/6 151/2/6
f 151/2/6 150/2/6 152/2/6
f 153/2/6 154/2/6 155/2/6
f 155/2/6 154/2/6 156/2/6
f 157/2/6 158/2/6 159/2/6
f 159/2/6 158/2/6 160/2/6
