# MagicaVoxel @ Ephtracy

# group
o 

# material
mtllib path_tile_v.mtl
usemtl palette

# normals
vn -1 0 0
vn 1 0 0
vn 0 0 1
vn 0 0 -1
vn 0 -1 0
vn 0 1 0

# texcoords
vt 0.896484 0.5
vt 0.900391 0.5
vt 0.958984 0.5
vt 0.978516 0.5
vt 0.982422 0.5

# verts
v 0 0 0
v 0 0 -10
v 0 0.1 0
v 0 0.1 -10
v 3.5 0.1 0
v 3.5 0.1 -10
v 3.5 0.3 0
v 3.5 0.3 -10
v 6 0.2 0
v 6 0.2 -1.8
v 6 0.2 -2
v 6 0.2 -3.8
v 6 0.2 -4
v 6 0.2 -5.8
v 6 0.2 -6
v 6 0.2 -7.8
v 6 0.2 -8
v 6 0.2 -9.8
v 6 0.2 -10
v 6 0.3 0
v 6 0.3 -10
v 4 0.2 0
v 4 0.2 -0.2
v 4 0.2 -2
v 4 0.2 -2.2
v 4 0.2 -4
v 4 0.2 -4.2
v 4 0.2 -6
v 4 0.2 -6.2
v 4 0.2 -8
v 4 0.2 -8.2
v 4 0.2 -10
v 4 0.3 0
v 4 0.3 -10
v 6.5 0.1 0
v 6.5 0.1 -10
v 6.5 0.3 0
v 6.5 0.3 -10
v 10 0 0
v 10 0 -10
v 10 0.1 0
v 10 0.1 -10
v 0 0 0
v 0 0.1 0
v 3.5 0.1 0
v 3.5 0.3 0
v 4 0.1 0
v 4 0.2 0
v 4 0.3 0
v 4.2 0.1 0
v 4.2 0.2 0
v 6 0.1 0
v 6 0.2 0
v 6 0.3 0
v 6.5 0.1 0
v 6.5 0.3 0
v 10 0 0
v 10 0.1 0
v 0 0 -10
v 0 0.1 -10
v 3.5 0.1 -10
v 3.5 0.3 -10
v 4 0.1 -10
v 4 0.2 -10
v 4 0.3 -10
v 5.8 0.1 -10
v 5.8 0.2 -10
v 6 0.1 -10
v 6 0.2 -10
v 6 0.3 -10
v 6.5 0.1 -10
v 6.5 0.3 -10
v 10 0 -10
v 10 0.1 -10
v 0 0 0
v 10 0 0
v 9 0 -0.4
v 9.2 0 -0.4
v 9 0 -0.5
v 9.1 0 -0.5
v 9.2 0 -0.5
v 9.3 0 -0.5
v 9.1 0 -0.6
v 9.3 0 -0.6
v 0.8 0 -1.3
v 1 0 -1.3
v 0.8 0 -1.4
v 0.9 0 -1.4
v 1 0 -1.4
v 1.1 0 -1.4
v 0.9 0 -1.5
v 1.1 0 -1.5
v 4.1 0 -1.6
v 4.3 0 -1.6
v 4.1 0 -1.7
v 4.2 0 -1.7
v 4.3 0 -1.7
v 4.4 0 -1.7
v 7.2 0 -1.7
v 7.4 0 -1.7
v 4.2 0 -1.8
v 4.4 0 -1.8
v 7.2 0 -1.8
v 7.3 0 -1.8
v 7.4 0 -1.8
v 7.5 0 -1.8
v 7.3 0 -1.9
v 7.5 0 -1.9
v 4.1 0 -4.3
v 4.3 0 -4.3
v 4.1 0 -4.4
v 4.2 0 -4.4
v 4.3 0 -4.4
v 4.4 0 -4.4
v 4.2 0 -4.5
v 4.4 0 -4.5
v 8.4 0 -4.9
v 8.6 0 -4.9
v 8.4 0 -5
v 8.5 0 -5
v 8.6 0 -5
v 8.7 0 -5
v 8.5 0 -5.1
v 8.7 0 -5.1
v 0.8 0 -5.2
v 1 0 -5.2
v 0.8 0 -5.3
v 0.9 0 -5.3
v 1 0 -5.3
v 1.1 0 -5.3
v 0.9 0 -5.4
v 1.1 0 -5.4
v 6.8 0 -7
v 7 0 -7
v 1.8 0 -7.1
v 2 0 -7.1
v 6.8 0 -7.1
v 6.9 0 -7.1
v 7 0 -7.1
v 7.1 0 -7.1
v 1.8 0 -7.2
v 1.9 0 -7.2
v 2 0 -7.2
v 2.1 0 -7.2
v 6.9 0 -7.2
v 7.1 0 -7.2
v 1.9 0 -7.3
v 2.1 0 -7.3
v 3.6 0 -8.8
v 3.8 0 -8.8
v 1 0 -8.9
v 1.2 0 -8.9
v 3.6 0 -8.9
v 3.7 0 -8.9
v 3.8 0 -8.9
v 3.9 0 -8.9
v 1 0 -9
v 1.1 0 -9
v 1.2 0 -9
v 1.3 0 -9
v 3.7 0 -9
v 3.9 0 -9
v 1.1 0 -9.1
v 1.3 0 -9.1
v 9.6 0 -9.6
v 9.8 0 -9.6
v 9.6 0 -9.7
v 9.7 0 -9.7
v 9.8 0 -9.7
v 9.9 0 -9.7
v 9.7 0 -9.8
v 9.9 0 -9.8
v 0 0 -10
v 10 0 -10
v 0 0.1 0
v 3.5 0.1 0
v 6.5 0.1 0
v 10 0.1 0
v 9 0.1 -0.4
v 9.2 0.1 -0.4
v 9 0.1 -0.5
v 9.1 0.1 -0.5
v 9.2 0.1 -0.5
v 9.3 0.1 -0.5
v 9.1 0.1 -0.6
v 9.3 0.1 -0.6
v 0.8 0.1 -1.3
v 1 0.1 -1.3
v 0.8 0.1 -1.4
v 0.9 0.1 -1.4
v 1 0.1 -1.4
v 1.1 0.1 -1.4
v 0.9 0.1 -1.5
v 1.1 0.1 -1.5
v 7.2 0.1 -1.7
v 7.4 0.1 -1.7
v 7.2 0.1 -1.8
v 7.3 0.1 -1.8
v 7.4 0.1 -1.8
v 7.5 0.1 -1.8
v 7.3 0.1 -1.9
v 7.5 0.1 -1.9
v 8.4 0.1 -4.9
v 8.6 0.1 -4.9
v 8.4 0.1 -5
v 8.5 0.1 -5
v 8.6 0.1 -5
v 8.7 0.1 -5
v 8.5 0.1 -5.1
v 8.7 0.1 -5.1
v 0.8 0.1 -5.2
v 1 0.1 -5.2
v 0.8 0.1 -5.3
v 0.9 0.1 -5.3
v 1 0.1 -5.3
v 1.1 0.1 -5.3
v 0.9 0.1 -5.4
v 1.1 0.1 -5.4
v 6.8 0.1 -7
v 7 0.1 -7
v 1.8 0.1 -7.1
v 2 0.1 -7.1
v 6.8 0.1 -7.1
v 6.9 0.1 -7.1
v 7 0.1 -7.1
v 7.1 0.1 -7.1
v 1.8 0.1 -7.2
v 1.9 0.1 -7.2
v 2 0.1 -7.2
v 2.1 0.1 -7.2
v 6.9 0.1 -7.2
v 7.1 0.1 -7.2
v 1.9 0.1 -7.3
v 2.1 0.1 -7.3
v 1 0.1 -8.9
v 1.2 0.1 -8.9
v 1 0.1 -9
v 1.1 0.1 -9
v 1.2 0.1 -9
v 1.3 0.1 -9
v 1.1 0.1 -9.1
v 1.3 0.1 -9.1
v 9.6 0.1 -9.6
v 9.8 0.1 -9.6
v 9.6 0.1 -9.7
v 9.7 0.1 -9.7
v 9.8 0.1 -9.7
v 9.9 0.1 -9.7
v 9.7 0.1 -9.8
v 9.9 0.1 -9.8
v 0 0.1 -10
v 3.5 0.1 -10
v 6.5 0.1 -10
v 10 0.1 -10
v 4 0.2 0
v 4.2 0.2 0
v 6 0.2 0
v 4 0.2 -0.2
v 4.2 0.2 -0.2
v 4.4 0.2 -0.2
v 4.2 0.2 -0.4
v 4.4 0.2 -0.4
v 4.6 0.2 -0.4
v 4.4 0.2 -0.6
v 4.6 0.2 -0.6
v 4.8 0.2 -0.6
v 4.6 0.2 -0.8
v 4.8 0.2 -0.8
v 5 0.2 -0.8
v 4.8 0.2 -1
v 5 0.2 -1
v 5.2 0.2 -1
v 5 0.2 -1.2
v 5.2 0.2 -1.2
v 5.4 0.2 -1.2
v 5.2 0.2 -1.4
v 5.4 0.2 -1.4
v 5.6 0.2 -1.4
v 5.4 0.2 -1.6
v 5.6 0.2 -1.6
v 5.8 0.2 -1.6
v 5.6 0.2 -1.8
v 5.8 0.2 -1.8
v 6 0.2 -1.8
v 4 0.2 -2
v 4.2 0.2 -2
v 5.8 0.2 -2
v 6 0.2 -2
v 4 0.2 -2.2
v 4.2 0.2 -2.2
v 4.4 0.2 -2.2
v 4.2 0.2 -2.4
v 4.4 0.2 -2.4
v 4.6 0.2 -2.4
v 4.4 0.2 -2.6
v 4.6 0.2 -2.6
v 4.8 0.2 -2.6
v 4.6 0.2 -2.8
v 4.8 0.2 -2.8
v 5 0.2 -2.8
v 4.8 0.2 -3
v 5 0.2 -3
v 5.2 0.2 -3
v 5 0.2 -3.2
v 5.2 0.2 -3.2
v 5.4 0.2 -3.2
v 5.2 0.2 -3.4
v 5.4 0.2 -3.4
v 5.6 0.2 -3.4
v 5.4 0.2 -3.6
v 5.6 0.2 -3.6
v 5.8 0.2 -3.6
v 5.6 0.2 -3.8
v 5.8 0.2 -3.8
v 6 0.2 -3.8
v 4 0.2 -4
v 4.2 0.2 -4
v 5.8 0.2 -4
v 6 0.2 -4
v 4 0.2 -4.2
v 4.2 0.2 -4.2
v 4.4 0.2 -4.2
v 4.2 0.2 -4.4
v 4.4 0.2 -4.4
v 4.6 0.2 -4.4
v 4.4 0.2 -4.6
v 4.6 0.2 -4.6
v 4.8 0.2 -4.6
v 4.6 0.2 -4.8
v 4.8 0.2 -4.8
v 5 0.2 -4.8
v 4.8 0.2 -5
v 5 0.2 -5
v 5.2 0.2 -5
v 5 0.2 -5.2
v 5.2 0.2 -5.2
v 5.4 0.2 -5.2
v 5.2 0.2 -5.4
v 5.4 0.2 -5.4
v 5.6 0.2 -5.4
v 5.4 0.2 -5.6
v 5.6 0.2 -5.6
v 5.8 0.2 -5.6
v 5.6 0.2 -5.8
v 5.8 0.2 -5.8
v 6 0.2 -5.8
v 4 0.2 -6
v 4.2 0.2 -6
v 5.8 0.2 -6
v 6 0.2 -6
v 4 0.2 -6.2
v 4.2 0.2 -6.2
v 4.4 0.2 -6.2
v 4.2 0.2 -6.4
v 4.4 0.2 -6.4
v 4.6 0.2 -6.4
v 4.4 0.2 -6.6
v 4.6 0.2 -6.6
v 4.8 0.2 -6.6
v 4.6 0.2 -6.8
v 4.8 0.2 -6.8
v 5 0.2 -6.8
v 4.8 0.2 -7
v 5 0.2 -7
v 5.2 0.2 -7
v 5 0.2 -7.2
v 5.2 0.2 -7.2
v 5.4 0.2 -7.2
v 5.2 0.2 -7.4
v 5.4 0.2 -7.4
v 5.6 0.2 -7.4
v 5.4 0.2 -7.6
v 5.6 0.2 -7.6
v 5.8 0.2 -7.6
v 5.6 0.2 -7.8
v 5.8 0.2 -7.8
v 6 0.2 -7.8
v 4 0.2 -8
v 4.2 0.2 -8
v 5.8 0.2 -8
v 6 0.2 -8
v 4 0.2 -8.2
v 4.2 0.2 -8.2
v 4.4 0.2 -8.2
v 4.2 0.2 -8.4
v 4.4 0.2 -8.4
v 4.6 0.2 -8.4
v 4.4 0.2 -8.6
v 4.6 0.2 -8.6
v 4.8 0.2 -8.6
v 4.6 0.2 -8.8
v 4.8 0.2 -8.8
v 5 0.2 -8.8
v 4.8 0.2 -9
v 5 0.2 -9
v 5.2 0.2 -9
v 5 0.2 -9.2
v 5.2 0.2 -9.2
v 5.4 0.2 -9.2
v 5.2 0.2 -9.4
v 5.4 0.2 -9.4
v 5.6 0.2 -9.4
v 5.4 0.2 -9.6
v 5.6 0.2 -9.6
v 5.8 0.2 -9.6
v 5.6 0.2 -9.8
v 5.8 0.2 -9.8
v 6 0.2 -9.8
v 4 0.2 -10
v 5.8 0.2 -10
v 6 0.2 -10
v 3.5 0.3 0
v 4 0.3 0
v 6 0.3 0
v 6.5 0.3 0
v 3.5 0.3 -10
v 4 0.3 -10
v 6 0.3 -10
v 6.5 0.3 -10

# faces
f 3/1/1 2/1/1 1/1/1
f 4/1/1 2/1/1 3/1/1
f 7/3/1 6/3/1 5/3/1
f 8/3/1 6/3/1 7/3/1
f 20/3/1 10/3/1 9/3/1
f 20/3/1 19/3/1 18/3/1
f 20/3/1 18/3/1 17/3/1
f 20/3/1 17/3/1 16/3/1
f 20/3/1 16/3/1 15/3/1
f 20/3/1 15/3/1 14/3/1
f 20/3/1 14/3/1 13/3/1
f 20/3/1 13/3/1 12/3/1
f 20/3/1 12/3/1 11/3/1
f 20/3/1 11/3/1 10/3/1
f 21/3/1 19/3/1 20/3/1
f 22/3/2 23/3/2 33/3/2
f 31/3/2 32/3/2 33/3/2
f 30/3/2 31/3/2 33/3/2
f 29/3/2 30/3/2 33/3/2
f 28/3/2 29/3/2 33/3/2
f 27/3/2 28/3/2 33/3/2
f 26/3/2 27/3/2 33/3/2
f 25/3/2 26/3/2 33/3/2
f 24/3/2 25/3/2 33/3/2
f 23/3/2 24/3/2 33/3/2
f 33/3/2 32/3/2 34/3/2
f 35/3/2 36/3/2 37/3/2
f 37/3/2 36/3/2 38/3/2
f 39/1/2 40/1/2 41/1/2
f 41/1/2 40/1/2 42/1/2
f 45/1/3 44/1/3 43/1/3
f 47/1/3 45/1/3 43/1/3
f 47/3/3 46/3/3 45/3/3
f 48/3/3 46/3/3 47/3/3
f 49/3/3 46/3/3 48/3/3
f 50/1/3 47/1/3 43/1/3
f 50/4/3 48/4/3 47/4/3
f 51/4/3 48/4/3 50/4/3
f 52/1/3 50/1/3 43/1/3
f 52/5/3 51/5/3 50/5/3
f 53/5/3 51/5/3 52/5/3
f 55/3/3 53/3/3 52/3/3
f 55/3/3 54/3/3 53/3/3
f 55/1/3 52/1/3 43/1/3
f 56/3/3 54/3/3 55/3/3
f 57/1/3 55/1/3 43/1/3
f 58/1/3 55/1/3 57/1/3
f 59/1/4 60/1/4 61/1/4
f 59/1/4 61/1/4 63/1/4
f 61/3/4 62/3/4 63/3/4
f 63/3/4 62/3/4 64/3/4
f 64/3/4 62/3/4 65/3/4
f 59/1/4 63/1/4 66/1/4
f 63/5/4 64/5/4 66/5/4
f 66/5/4 64/5/4 67/5/4
f 59/1/4 66/1/4 68/1/4
f 66/4/4 67/4/4 68/4/4
f 68/4/4 67/4/4 69/4/4
f 68/3/4 69/3/4 71/3/4
f 69/3/4 70/3/4 71/3/4
f 59/1/4 68/1/4 71/1/4
f 71/3/4 70/3/4 72/3/4
f 59/1/4 71/1/4 73/1/4
f 73/1/4 71/1/4 74/1/4
f 77/1/5 76/1/5 75/1/5
f 78/1/5 76/1/5 77/1/5
f 79/1/5 77/1/5 75/1/5
f 79/2/5 78/2/5 77/2/5
f 80/2/5 78/2/5 79/2/5
f 81/1/5 76/1/5 78/1/5
f 81/2/5 78/2/5 80/2/5
f 82/1/5 76/1/5 81/1/5
f 83/1/5 80/1/5 79/1/5
f 83/2/5 81/2/5 80/2/5
f 83/2/5 82/2/5 81/2/5
f 84/1/5 76/1/5 82/1/5
f 84/2/5 82/2/5 83/2/5
f 85/1/5 83/1/5 79/1/5
f 85/1/5 79/1/5 75/1/5
f 85/1/5 84/1/5 83/1/5
f 86/1/5 84/1/5 85/1/5
f 87/1/5 85/1/5 75/1/5
f 87/2/5 86/2/5 85/2/5
f 88/2/5 86/2/5 87/2/5
f 89/1/5 84/1/5 86/1/5
f 89/2/5 86/2/5 88/2/5
f 90/1/5 84/1/5 89/1/5
f 91/1/5 88/1/5 87/1/5
f 91/2/5 89/2/5 88/2/5
f 91/2/5 90/2/5 89/2/5
f 92/1/5 84/1/5 90/1/5
f 92/2/5 90/2/5 91/2/5
f 93/1/5 92/1/5 91/1/5
f 93/1/5 84/1/5 92/1/5
f 94/1/5 84/1/5 93/1/5
f 95/1/5 93/1/5 91/1/5
f 95/2/5 94/2/5 93/2/5
f 96/2/5 94/2/5 95/2/5
f 97/1/5 84/1/5 94/1/5
f 97/2/5 94/2/5 96/2/5
f 98/1/5 84/1/5 97/1/5
f 99/1/5 84/1/5 98/1/5
f 100/1/5 84/1/5 99/1/5
f 101/1/5 96/1/5 95/1/5
f 101/2/5 97/2/5 96/2/5
f 101/2/5 98/2/5 97/2/5
f 102/1/5 99/1/5 98/1/5
f 102/2/5 98/2/5 101/2/5
f 103/2/5 100/2/5 99/2/5
f 103/1/5 99/1/5 102/1/5
f 104/2/5 100/2/5 103/2/5
f 105/1/5 84/1/5 100/1/5
f 105/2/5 100/2/5 104/2/5
f 106/1/5 84/1/5 105/1/5
f 107/1/5 104/1/5 103/1/5
f 107/1/5 102/1/5 101/1/5
f 107/2/5 106/2/5 105/2/5
f 107/2/5 105/2/5 104/2/5
f 107/1/5 103/1/5 102/1/5
f 108/1/5 84/1/5 106/1/5
f 108/2/5 106/2/5 107/2/5
f 109/1/5 107/1/5 101/1/5
f 109/1/5 95/1/5 91/1/5
f 109/1/5 108/1/5 107/1/5
f 109/1/5 101/1/5 95/1/5
f 110/1/5 108/1/5 109/1/5
f 111/1/5 109/1/5 91/1/5
f 111/2/5 110/2/5 109/2/5
f 112/2/5 110/2/5 111/2/5
f 113/1/5 108/1/5 110/1/5
f 113/2/5 110/2/5 112/2/5
f 114/1/5 108/1/5 113/1/5
f 115/1/5 112/1/5 111/1/5
f 115/2/5 113/2/5 112/2/5
f 115/2/5 114/2/5 113/2/5
f 116/1/5 108/1/5 114/1/5
f 116/2/5 114/2/5 115/2/5
f 117/1/5 84/1/5 108/1/5
f 117/1/5 108/1/5 116/1/5
f 117/1/5 116/1/5 115/1/5
f 118/1/5 84/1/5 117/1/5
f 119/1/5 117/1/5 115/1/5
f 119/2/5 118/2/5 117/2/5
f 120/2/5 118/2/5 119/2/5
f 121/1/5 84/1/5 118/1/5
f 121/2/5 118/2/5 120/2/5
f 122/1/5 84/1/5 121/1/5
f 123/1/5 120/1/5 119/1/5
f 123/2/5 121/2/5 120/2/5
f 123/2/5 122/2/5 121/2/5
f 124/1/5 84/1/5 122/1/5
f 124/2/5 122/2/5 123/2/5
f 125/1/5 91/1/5 87/1/5
f 125/1/5 87/1/5 75/1/5
f 125/1/5 124/1/5 123/1/5
f 125/1/5 119/1/5 115/1/5
f 125/1/5 123/1/5 119/1/5
f 125/1/5 115/1/5 111/1/5
f 125/1/5 111/1/5 91/1/5
f 126/1/5 124/1/5 125/1/5
f 127/1/5 125/1/5 75/1/5
f 127/2/5 126/2/5 125/2/5
f 128/2/5 126/2/5 127/2/5
f 129/1/5 124/1/5 126/1/5
f 129/2/5 126/2/5 128/2/5
f 130/1/5 124/1/5 129/1/5
f 131/1/5 128/1/5 127/1/5
f 131/2/5 129/2/5 128/2/5
f 131/2/5 130/2/5 129/2/5
f 132/1/5 124/1/5 130/1/5
f 132/2/5 130/2/5 131/2/5
f 133/1/5 132/1/5 131/1/5
f 133/1/5 124/1/5 132/1/5
f 134/1/5 124/1/5 133/1/5
f 135/1/5 133/1/5 131/1/5
f 136/1/5 133/1/5 135/1/5
f 137/2/5 134/2/5 133/2/5
f 137/1/5 133/1/5 136/1/5
f 138/2/5 134/2/5 137/2/5
f 139/1/5 124/1/5 134/1/5
f 139/2/5 134/2/5 138/2/5
f 140/1/5 124/1/5 139/1/5
f 141/2/5 136/2/5 135/2/5
f 141/1/5 135/1/5 131/1/5
f 142/2/5 136/2/5 141/2/5
f 143/1/5 138/1/5 137/1/5
f 143/2/5 136/2/5 142/2/5
f 143/1/5 137/1/5 136/1/5
f 144/1/5 138/1/5 143/1/5
f 145/2/5 140/2/5 139/2/5
f 145/1/5 138/1/5 144/1/5
f 145/2/5 139/2/5 138/2/5
f 146/1/5 124/1/5 140/1/5
f 146/2/5 140/2/5 145/2/5
f 147/1/5 142/1/5 141/1/5
f 147/2/5 144/2/5 143/2/5
f 147/2/5 143/2/5 142/2/5
f 148/1/5 145/1/5 144/1/5
f 148/2/5 144/2/5 147/2/5
f 148/1/5 146/1/5 145/1/5
f 149/1/5 148/1/5 147/1/5
f 149/1/5 146/1/5 148/1/5
f 150/1/5 146/1/5 149/1/5
f 151/1/5 147/1/5 141/1/5
f 151/1/5 141/1/5 131/1/5
f 151/1/5 149/1/5 147/1/5
f 152/1/5 149/1/5 151/1/5
f 153/2/5 150/2/5 149/2/5
f 153/1/5 149/1/5 152/1/5
f 154/2/5 150/2/5 153/2/5
f 155/1/5 146/1/5 150/1/5
f 155/2/5 150/2/5 154/2/5
f 156/1/5 146/1/5 155/1/5
f 157/2/5 152/2/5 151/2/5
f 157/1/5 151/1/5 131/1/5
f 158/2/5 152/2/5 157/2/5
f 159/1/5 154/1/5 153/1/5
f 159/2/5 152/2/5 158/2/5
f 159/1/5 153/1/5 152/1/5
f 160/1/5 154/1/5 159/1/5
f 161/2/5 156/2/5 155/2/5
f 161/1/5 154/1/5 160/1/5
f 161/2/5 155/2/5 154/2/5
f 162/1/5 146/1/5 156/1/5
f 162/2/5 156/2/5 161/2/5
f 163/1/5 158/1/5 157/1/5
f 163/2/5 160/2/5 159/2/5
f 163/2/5 159/2/5 158/2/5
f 164/1/5 161/1/5 160/1/5
f 164/2/5 160/2/5 163/2/5
f 164/1/5 162/1/5 161/1/5
f 165/1/5 76/1/5 84/1/5
f 165/1/5 162/1/5 164/1/5
f 165/1/5 164/1/5 163/1/5
f 165/1/5 84/1/5 124/1/5
f 165/1/5 124/1/5 146/1/5
f 165/1/5 146/1/5 162/1/5
f 166/1/5 76/1/5 165/1/5
f 167/1/5 165/1/5 163/1/5
f 167/2/5 166/2/5 165/2/5
f 168/2/5 166/2/5 167/2/5
f 169/1/5 76/1/5 166/1/5
f 169/2/5 166/2/5 168/2/5
f 170/1/5 76/1/5 169/1/5
f 171/1/5 168/1/5 167/1/5
f 171/2/5 169/2/5 168/2/5
f 171/2/5 170/2/5 169/2/5
f 172/1/5 76/1/5 170/1/5
f 172/2/5 170/2/5 171/2/5
f 173/1/5 157/1/5 131/1/5
f 173/1/5 163/1/5 157/1/5
f 173/1/5 172/1/5 171/1/5
f 173/1/5 167/1/5 163/1/5
f 173/1/5 171/1/5 167/1/5
f 173/1/5 127/1/5 75/1/5
f 173/1/5 131/1/5 127/1/5
f 174/1/5 76/1/5 172/1/5
f 174/1/5 172/1/5 173/1/5
f 177/1/6 178/1/6 179/1/6
f 179/1/6 178/1/6 180/1/6
f 177/1/6 179/1/6 181/1/6
f 179/2/6 180/2/6 181/2/6
f 181/2/6 180/2/6 182/2/6
f 180/1/6 178/1/6 183/1/6
f 182/2/6 180/2/6 183/2/6
f 183/1/6 178/1/6 184/1/6
f 181/1/6 182/1/6 185/1/6
f 182/2/6 183/2/6 185/2/6
f 183/2/6 184/2/6 185/2/6
f 184/1/6 178/1/6 186/1/6
f 185/2/6 184/2/6 186/2/6
f 175/1/6 176/1/6 187/1/6
f 187/1/6 176/1/6 188/1/6
f 175/1/6 187/1/6 189/1/6
f 187/2/6 188/2/6 189/2/6
f 189/2/6 188/2/6 190/2/6
f 188/1/6 176/1/6 191/1/6
f 190/2/6 188/2/6 191/2/6
f 191/1/6 176/1/6 192/1/6
f 189/1/6 190/1/6 193/1/6
f 190/2/6 191/2/6 193/2/6
f 191/2/6 192/2/6 193/2/6
f 192/1/6 176/1/6 194/1/6
f 193/2/6 192/2/6 194/2/6
f 181/1/6 185/1/6 195/1/6
f 177/1/6 181/1/6 195/1/6
f 185/1/6 186/1/6 195/1/6
f 195/1/6 186/1/6 196/1/6
f 177/1/6 195/1/6 197/1/6
f 195/2/6 196/2/6 197/2/6
f 197/2/6 196/2/6 198/2/6
f 196/1/6 186/1/6 199/1/6
f 198/2/6 196/2/6 199/2/6
f 199/1/6 186/1/6 200/1/6
f 197/1/6 198/1/6 201/1/6
f 198/2/6 199/2/6 201/2/6
f 199/2/6 200/2/6 201/2/6
f 200/1/6 186/1/6 202/1/6
f 201/2/6 200/2/6 202/2/6
f 201/1/6 202/1/6 203/1/6
f 202/1/6 186/1/6 203/1/6
f 203/1/6 186/1/6 204/1/6
f 201/1/6 203/1/6 205/1/6
f 203/2/6 204/2/6 205/2/6
f 205/2/6 204/2/6 206/2/6
f 204/1/6 186/1/6 207/1/6
f 206/2/6 204/2/6 207/2/6
f 207/1/6 186/1/6 208/1/6
f 205/1/6 206/1/6 209/1/6
f 206/2/6 207/2/6 209/2/6
f 207/2/6 208/2/6 209/2/6
f 208/1/6 186/1/6 210/1/6
f 209/2/6 208/2/6 210/2/6
f 193/1/6 194/1/6 211/1/6
f 175/1/6 189/1/6 211/1/6
f 189/1/6 193/1/6 211/1/6
f 211/1/6 194/1/6 212/1/6
f 175/1/6 211/1/6 213/1/6
f 211/2/6 212/2/6 213/2/6
f 213/2/6 212/2/6 214/2/6
f 212/1/6 194/1/6 215/1/6
f 214/2/6 212/2/6 215/2/6
f 194/1/6 176/1/6 216/1/6
f 215/1/6 194/1/6 216/1/6
f 214/2/6 215/2/6 217/2/6
f 213/1/6 214/1/6 217/1/6
f 215/2/6 216/2/6 217/2/6
f 216/1/6 176/1/6 218/1/6
f 217/2/6 216/2/6 218/2/6
f 209/1/6 210/1/6 219/1/6
f 201/1/6 205/1/6 219/1/6
f 197/1/6 201/1/6 219/1/6
f 177/1/6 197/1/6 219/1/6
f 205/1/6 209/1/6 219/1/6
f 219/1/6 210/1/6 220/1/6
f 218/1/6 176/1/6 221/1/6
f 217/1/6 218/1/6 221/1/6
f 221/1/6 176/1/6 222/1/6
f 219/2/6 220/2/6 223/2/6
f 177/1/6 219/1/6 223/1/6
f 223/2/6 220/2/6 224/2/6
f 220/1/6 210/1/6 225/1/6
f 224/2/6 220/2/6 225/2/6
f 225/1/6 210/1/6 226/1/6
f 221/2/6 222/2/6 227/2/6
f 217/1/6 221/1/6 227/1/6
f 227/2/6 222/2/6 228/2/6
f 222/1/6 176/1/6 229/1/6
f 228/2/6 222/2/6 229/2/6
f 229/1/6 176/1/6 230/1/6
f 223/1/6 224/1/6 231/1/6
f 225/2/6 226/2/6 231/2/6
f 224/2/6 225/2/6 231/2/6
f 226/1/6 210/1/6 232/1/6
f 231/2/6 226/2/6 232/2/6
f 227/1/6 228/1/6 233/1/6
f 229/2/6 230/2/6 233/2/6
f 228/2/6 229/2/6 233/2/6
f 230/1/6 176/1/6 234/1/6
f 233/2/6 230/2/6 234/2/6
f 227/1/6 233/1/6 235/1/6
f 217/1/6 227/1/6 235/1/6
f 233/1/6 234/1/6 235/1/6
f 235/1/6 234/1/6 236/1/6
f 217/1/6 235/1/6 237/1/6
f 235/2/6 236/2/6 237/2/6
f 237/2/6 236/2/6 238/2/6
f 236/1/6 234/1/6 239/1/6
f 238/2/6 236/2/6 239/2/6
f 239/1/6 234/1/6 240/1/6
f 237/1/6 238/1/6 241/1/6
f 238/2/6 239/2/6 241/2/6
f 239/2/6 240/2/6 241/2/6
f 240/1/6 234/1/6 242/1/6
f 241/2/6 240/2/6 242/2/6
f 186/1/6 178/1/6 243/1/6
f 210/1/6 186/1/6 243/1/6
f 232/1/6 210/1/6 243/1/6
f 231/1/6 232/1/6 243/1/6
f 243/1/6 178/1/6 244/1/6
f 231/1/6 243/1/6 245/1/6
f 243/2/6 244/2/6 245/2/6
f 245/2/6 244/2/6 246/2/6
f 244/1/6 178/1/6 247/1/6
f 246/2/6 244/2/6 247/2/6
f 247/1/6 178/1/6 248/1/6
f 245/1/6 246/1/6 249/1/6
f 246/2/6 247/2/6 249/2/6
f 247/2/6 248/2/6 249/2/6
f 248/1/6 178/1/6 250/1/6
f 249/2/6 248/2/6 250/2/6
f 213/1/6 217/1/6 251/1/6
f 241/1/6 242/1/6 251/1/6
f 217/1/6 237/1/6 251/1/6
f 175/1/6 213/1/6 251/1/6
f 237/1/6 241/1/6 251/1/6
f 242/1/6 234/1/6 252/1/6
f 251/1/6 242/1/6 252/1/6
f 234/1/6 176/1/6 252/1/6
f 249/1/6 250/1/6 253/1/6
f 177/1/6 223/1/6 253/1/6
f 223/1/6 231/1/6 253/1/6
f 245/1/6 249/1/6 253/1/6
f 231/1/6 245/1/6 253/1/6
f 250/1/6 178/1/6 254/1/6
f 253/1/6 250/1/6 254/1/6
f 255/4/6 256/4/6 258/4/6
f 256/5/6 257/5/6 259/5/6
f 258/4/6 256/4/6 259/4/6
f 259/5/6 257/5/6 260/5/6
f 258/5/6 259/5/6 261/5/6
f 259/4/6 260/4/6 261/4/6
f 260/5/6 257/5/6 262/5/6
f 261/4/6 260/4/6 262/4/6
f 262/5/6 257/5/6 263/5/6
f 261/5/6 262/5/6 264/5/6
f 262/4/6 263/4/6 264/4/6
f 263/5/6 257/5/6 265/5/6
f 264/4/6 263/4/6 265/4/6
f 265/5/6 257/5/6 266/5/6
f 264/5/6 265/5/6 267/5/6
f 265/4/6 266/4/6 267/4/6
f 266/5/6 257/5/6 268/5/6
f 267/4/6 266/4/6 268/4/6
f 268/5/6 257/5/6 269/5/6
f 267/5/6 268/5/6 270/5/6
f 268/4/6 269/4/6 270/4/6
f 269/5/6 257/5/6 271/5/6
f 270/4/6 269/4/6 271/4/6
f 271/5/6 257/5/6 272/5/6
f 270/5/6 271/5/6 273/5/6
f 271/4/6 272/4/6 273/4/6
f 272/5/6 257/5/6 274/5/6
f 273/4/6 272/4/6 274/4/6
f 274/5/6 257/5/6 275/5/6
f 273/5/6 274/5/6 276/5/6
f 274/4/6 275/4/6 276/4/6
f 275/5/6 257/5/6 277/5/6
f 276/4/6 275/4/6 277/4/6
f 277/5/6 257/5/6 278/5/6
f 276/5/6 277/5/6 279/5/6
f 277/4/6 278/4/6 279/4/6
f 278/5/6 257/5/6 280/5/6
f 279/4/6 278/4/6 280/4/6
f 280/5/6 257/5/6 281/5/6
f 279/5/6 280/5/6 282/5/6
f 280/4/6 281/4/6 282/4/6
f 281/5/6 257/5/6 283/5/6
f 282/4/6 281/4/6 283/4/6
f 283/5/6 257/5/6 284/5/6
f 258/5/6 261/5/6 285/5/6
f 261/5/6 264/5/6 285/5/6
f 264/5/6 267/5/6 285/5/6
f 282/5/6 283/5/6 285/5/6
f 279/5/6 282/5/6 285/5/6
f 276/5/6 279/5/6 285/5/6
f 273/5/6 276/5/6 285/5/6
f 270/5/6 273/5/6 285/5/6
f 267/5/6 270/5/6 285/5/6
f 285/5/6 283/5/6 286/5/6
f 283/4/6 284/4/6 287/4/6
f 286/5/6 283/5/6 287/5/6
f 287/4/6 284/4/6 288/4/6
f 285/4/6 286/4/6 289/4/6
f 286/5/6 287/5/6 290/5/6
f 289/4/6 286/4/6 290/4/6
f 287/5/6 288/5/6 290/5/6
f 290/5/6 288/5/6 291/5/6
f 289/5/6 290/5/6 292/5/6
f 290/4/6 291/4/6 292/4/6
f 291/5/6 288/5/6 293/5/6
f 292/4/6 291/4/6 293/4/6
f 293/5/6 288/5/6 294/5/6
f 292/5/6 293/5/6 295/5/6
f 293/4/6 294/4/6 295/4/6
f 294/5/6 288/5/6 296/5/6
f 295/4/6 294/4/6 296/4/6
f 296/5/6 288/5/6 297/5/6
f 295/5/6 296/5/6 298/5/6
f 296/4/6 297/4/6 298/4/6
f 297/5/6 288/5/6 299/5/6
f 298/4/6 297/4/6 299/4/6
f 299/5/6 288/5/6 300/5/6
f 298/5/6 299/5/6 301/5/6
f 299/4/6 300/4/6 301/4/6
f 300/5/6 288/5/6 302/5/6
f 301/4/6 300/4/6 302/4/6
f 302/5/6 288/5/6 303/5/6
f 301/5/6 302/5/6 304/5/6
f 302/4/6 303/4/6 304/4/6
f 303/5/6 288/5/6 305/5/6
f 304/4/6 303/4/6 305/4/6
f 305/5/6 288/5/6 306/5/6
f 304/5/6 305/5/6 307/5/6
f 305/4/6 306/4/6 307/4/6
f 306/5/6 288/5/6 308/5/6
f 307/4/6 306/4/6 308/4/6
f 308/5/6 288/5/6 309/5/6
f 307/5/6 308/5/6 310/5/6
f 308/4/6 309/4/6 310/4/6
f 309/5/6 288/5/6 311/5/6
f 310/4/6 309/4/6 311/4/6
f 311/5/6 288/5/6 312/5/6
f 310/5/6 311/5/6 313/5/6
f 311/4/6 312/4/6 313/4/6
f 312/5/6 288/5/6 314/5/6
f 313/4/6 312/4/6 314/4/6
f 314/5/6 288/5/6 315/5/6
f 289/5/6 292/5/6 316/5/6
f 292/5/6 295/5/6 316/5/6
f 295/5/6 298/5/6 316/5/6
f 313/5/6 314/5/6 316/5/6
f 310/5/6 313/5/6 316/5/6
f 307/5/6 310/5/6 316/5/6
f 304/5/6 307/5/6 316/5/6
f 301/5/6 304/5/6 316/5/6
f 298/5/6 301/5/6 316/5/6
f 316/5/6 314/5/6 317/5/6
f 314/4/6 315/4/6 318/4/6
f 317/5/6 314/5/6 318/5/6
f 318/4/6 315/4/6 319/4/6
f 316/4/6 317/4/6 320/4/6
f 317/5/6 318/5/6 321/5/6
f 320/4/6 317/4/6 321/4/6
f 318/5/6 319/5/6 321/5/6
f 321/5/6 319/5/6 322/5/6
f 320/5/6 321/5/6 323/5/6
f 321/4/6 322/4/6 323/4/6
f 322/5/6 319/5/6 324/5/6
f 323/4/6 322/4/6 324/4/6
f 324/5/6 319/5/6 325/5/6
f 323/5/6 324/5/6 326/5/6
f 324/4/6 325/4/6 326/4/6
f 325/5/6 319/5/6 327/5/6
f 326/4/6 325/4/6 327/4/6
f 327/5/6 319/5/6 328/5/6
f 326/5/6 327/5/6 329/5/6
f 327/4/6 328/4/6 329/4/6
f 328/5/6 319/5/6 330/5/6
f 329/4/6 328/4/6 330/4/6
f 330/5/6 319/5/6 331/5/6
f 329/5/6 330/5/6 332/5/6
f 330/4/6 331/4/6 332/4/6
f 331/5/6 319/5/6 333/5/6
f 332/4/6 331/4/6 333/4/6
f 333/5/6 319/5/6 334/5/6
f 332/5/6 333/5/6 335/5/6
f 333/4/6 334/4/6 335/4/6
f 334/5/6 319/5/6 336/5/6
f 335/4/6 334/4/6 336/4/6
f 336/5/6 319/5/6 337/5/6
f 335/5/6 336/5/6 338/5/6
f 336/4/6 337/4/6 338/4/6
f 337/5/6 319/5/6 339/5/6
f 338/4/6 337/4/6 339/4/6
f 339/5/6 319/5/6 340/5/6
f 338/5/6 339/5/6 341/5/6
f 339/4/6 340/4/6 341/4/6
f 340/5/6 319/5/6 342/5/6
f 341/4/6 340/4/6 342/4/6
f 342/5/6 319/5/6 343/5/6
f 341/5/6 342/5/6 344/5/6
f 342/4/6 343/4/6 344/4/6
f 343/5/6 319/5/6 345/5/6
f 344/4/6 343/4/6 345/4/6
f 345/5/6 319/5/6 346/5/6
f 320/5/6 323/5/6 347/5/6
f 323/5/6 326/5/6 347/5/6
f 326/5/6 329/5/6 347/5/6
f 344/5/6 345/5/6 347/5/6
f 341/5/6 344/5/6 347/5/6
f 338/5/6 341/5/6 347/5/6
f 335/5/6 338/5/6 347/5/6
f 332/5/6 335/5/6 347/5/6
f 329/5/6 332/5/6 347/5/6
f 347/5/6 345/5/6 348/5/6
f 345/4/6 346/4/6 349/4/6
f 348/5/6 345/5/6 349/5/6
f 349/4/6 346/4/6 350/4/6
f 347/4/6 348/4/6 351/4/6
f 348/5/6 349/5/6 352/5/6
f 351/4/6 348/4/6 352/4/6
f 349/5/6 350/5/6 352/5/6
f 352/5/6 350/5/6 353/5/6
f 351/5/6 352/5/6 354/5/6
f 352/4/6 353/4/6 354/4/6
f 353/5/6 350/5/6 355/5/6
f 354/4/6 353/4/6 355/4/6
f 355/5/6 350/5/6 356/5/6
f 354/5/6 355/5/6 357/5/6
f 355/4/6 356/4/6 357/4/6
f 356/5/6 350/5/6 358/5/6
f 357/4/6 356/4/6 358/4/6
f 358/5/6 350/5/6 359/5/6
f 357/5/6 358/5/6 360/5/6
f 358/4/6 359/4/6 360/4/6
f 359/5/6 350/5/6 361/5/6
f 360/4/6 359/4/6 361/4/6
f 361/5/6 350/5/6 362/5/6
f 360/5/6 361/5/6 363/5/6
f 361/4/6 362/4/6 363/4/6
f 362/5/6 350/5/6 364/5/6
f 363/4/6 362/4/6 364/4/6
f 364/5/6 350/5/6 365/5/6
f 363/5/6 364/5/6 366/5/6
f 364/4/6 365/4/6 366/4/6
f 365/5/6 350/5/6 367/5/6
f 366/4/6 365/4/6 367/4/6
f 367/5/6 350/5/6 368/5/6
f 366/5/6 367/5/6 369/5/6
f 367/4/6 368/4/6 369/4/6
f 368/5/6 350/5/6 370/5/6
f 369/4/6 368/4/6 370/4/6
f 370/5/6 350/5/6 371/5/6
f 369/5/6 370/5/6 372/5/6
f 370/4/6 371/4/6 372/4/6
f 371/5/6 350/5/6 373/5/6
f 372/4/6 371/4/6 373/4/6
f 373/5/6 350/5/6 374/5/6
f 372/5/6 373/5/6 375/5/6
f 373/4/6 374/4/6 375/4/6
f 374/5/6 350/5/6 376/5/6
f 375/4/6 374/4/6 376/4/6
f 376/5/6 350/5/6 377/5/6
f 351/5/6 354/5/6 378/5/6
f 354/5/6 357/5/6 378/5/6
f 357/5/6 360/5/6 378/5/6
f 375/5/6 376/5/6 378/5/6
f 372/5/6 375/5/6 378/5/6
f 369/5/6 372/5/6 378/5/6
f 366/5/6 369/5/6 378/5/6
f 363/5/6 366/5/6 378/5/6
f 360/5/6 363/5/6 378/5/6
f 378/5/6 376/5/6 379/5/6
f 376/4/6 377/4/6 380/4/6
f 379/5/6 376/5/6 380/5/6
f 380/4/6 377/4/6 381/4/6
f 378/4/6 379/4/6 382/4/6
f 379/5/6 380/5/6 383/5/6
f 382/4/6 379/4/6 383/4/6
f 380/5/6 381/5/6 383/5/6
f 383/5/6 381/5/6 384/5/6
f 382/5/6 383/5/6 385/5/6
f 383/4/6 384/4/6 385/4/6
f 384/5/6 381/5/6 386/5/6
f 385/4/6 384/4/6 386/4/6
f 386/5/6 381/5/6 387/5/6
f 385/5/6 386/5/6 388/5/6
f 386/4/6 387/4/6 388/4/6
f 387/5/6 381/5/6 389/5/6
f 388/4/6 387/4/6 389/4/6
f 389/5/6 381/5/6 390/5/6
f 388/5/6 389/5/6 391/5/6
f 389/4/6 390/4/6 391/4/6
f 390/5/6 381/5/6 392/5/6
f 391/4/6 390/4/6 392/4/6
f 392/5/6 381/5/6 393/5/6
f 391/5/6 392/5/6 394/5/6
f 392/4/6 393/4/6 394/4/6
f 393/5/6 381/5/6 395/5/6
f 394/4/6 393/4/6 395/4/6
f 395/5/6 381/5/6 396/5/6
f 394/5/6 395/5/6 397/5/6
f 395/4/6 396/4/6 397/4/6
f 396/5/6 381/5/6 398/5/6
f 397/4/6 396/4/6 398/4/6
f 398/5/6 381/5/6 399/5/6
f 397/5/6 398/5/6 400/5/6
f 398/4/6 399/4/6 400/4/6
f 399/5/6 381/5/6 401/5/6
f 400/4/6 399/4/6 401/4/6
f 401/5/6 381/5/6 402/5/6
f 400/5/6 401/5/6 403/5/6
f 401/4/6 402/4/6 403/4/6
f 402/5/6 381/5/6 404/5/6
f 403/4/6 402/4/6 404/4/6
f 404/5/6 381/5/6 405/5/6
f 403/5/6 404/5/6 406/5/6
f 404/4/6 405/4/6 406/4/6
f 405/5/6 381/5/6 407/5/6
f 406/4/6 405/4/6 407/4/6
f 407/5/6 381/5/6 408/5/6
f 382/5/6 385/5/6 409/5/6
f 385/5/6 388/5/6 409/5/6
f 388/5/6 391/5/6 409/5/6
f 406/5/6 407/5/6 409/5/6
f 403/5/6 406/5/6 409/5/6
f 400/5/6 403/5/6 409/5/6
f 397/5/6 400/5/6 409/5/6
f 394/5/6 397/5/6 409/5/6
f 391/5/6 394/5/6 409/5/6
f 407/4/6 408/4/6 410/4/6
f 409/5/6 407/5/6 410/5/6
f 410/4/6 408/4/6 411/4/6
f 412/3/6 413/3/6 416/3/6
f 416/3/6 413/3/6 417/3/6
f 414/3/6 415/3/6 418/3/6
f 418/3/6 415/3/6 419/3/6
