# MagicaVoxel @ Ephtracy

# group
o 

# material
mtllib ladder.mtl
usemtl palette

# normals
vn -1 0 0
vn 1 0 0
vn 0 0 1
vn 0 0 -1
vn 0 -1 0
vn 0 1 0

# texcoords
vt 0.00195313 0.5
vt 0.00585938 0.5

# verts
v -1 0 0.2
v -1 0 0
v -1 10 0.2
v -1 10 0
v -0.2 0 0.2
v -0.2 0 0
v -0.2 0.3 0.2
v -0.2 0.3 0.1
v -0.2 0.4 0.2
v -0.2 0.4 0.1
v -0.2 0.7 0.2
v -0.2 0.7 0.1
v -0.2 0.8 0.2
v -0.2 0.8 0.1
v -0.2 1.1 0.2
v -0.2 1.1 0.1
v -0.2 1.2 0.2
v -0.2 1.2 0.1
v -0.2 1.5 0.2
v -0.2 1.5 0.1
v -0.2 1.6 0.2
v -0.2 1.6 0.1
v -0.2 1.9 0.2
v -0.2 1.9 0.1
v -0.2 2 0.2
v -0.2 2 0.1
v -0.2 2.3 0.2
v -0.2 2.3 0.1
v -0.2 2.4 0.2
v -0.2 2.4 0.1
v -0.2 2.7 0.2
v -0.2 2.7 0.1
v -0.2 2.8 0.2
v -0.2 2.8 0.1
v -0.2 3.1 0.2
v -0.2 3.1 0.1
v -0.2 3.2 0.2
v -0.2 3.2 0.1
v -0.2 3.5 0.2
v -0.2 3.5 0.1
v -0.2 3.6 0.2
v -0.2 3.6 0.1
v -0.2 3.9 0.2
v -0.2 3.9 0.1
v -0.2 4 0.2
v -0.2 4 0.1
v -0.2 4.3 0.2
v -0.2 4.3 0.1
v -0.2 4.4 0.2
v -0.2 4.4 0.1
v -0.2 4.7 0.2
v -0.2 4.7 0.1
v -0.2 4.8 0.2
v -0.2 4.8 0.1
v -0.2 5.1 0.2
v -0.2 5.1 0.1
v -0.2 5.2 0.2
v -0.2 5.2 0.1
v -0.2 5.5 0.2
v -0.2 5.5 0.1
v -0.2 5.6 0.2
v -0.2 5.6 0.1
v -0.2 5.9 0.2
v -0.2 5.9 0.1
v -0.2 6 0.2
v -0.2 6 0.1
v -0.2 6.3 0.2
v -0.2 6.3 0.1
v -0.2 6.4 0.2
v -0.2 6.4 0.1
v -0.2 6.7 0.2
v -0.2 6.7 0.1
v -0.2 6.8 0.2
v -0.2 6.8 0.1
v -0.2 7.1 0.2
v -0.2 7.1 0.1
v -0.2 7.2 0.2
v -0.2 7.2 0.1
v -0.2 7.5 0.2
v -0.2 7.5 0.1
v -0.2 7.6 0.2
v -0.2 7.6 0.1
v -0.2 7.9 0.2
v -0.2 7.9 0.1
v -0.2 8 0.2
v -0.2 8 0.1
v -0.2 8.3 0.2
v -0.2 8.3 0.1
v -0.2 8.4 0.2
v -0.2 8.4 0.1
v -0.2 8.7 0.2
v -0.2 8.7 0.1
v -0.2 8.8 0.2
v -0.2 8.8 0.1
v -0.2 9.1 0.2
v -0.2 9.1 0.1
v -0.2 9.2 0.2
v -0.2 9.2 0.1
v -0.2 9.5 0.2
v -0.2 9.5 0.1
v -0.2 9.6 0.2
v -0.2 9.6 0.1
v -0.2 9.9 0.2
v -0.2 9.9 0.1
v -0.2 10 0.1
v -0.2 10 0
v -0.8 0 0.2
v -0.8 0 0
v -0.8 0.3 0.2
v -0.8 0.3 0.1
v -0.8 0.4 0.2
v -0.8 0.4 0.1
v -0.8 0.7 0.2
v -0.8 0.7 0.1
v -0.8 0.8 0.2
v -0.8 0.8 0.1
v -0.8 1.1 0.2
v -0.8 1.1 0.1
v -0.8 1.2 0.2
v -0.8 1.2 0.1
v -0.8 1.5 0.2
v -0.8 1.5 0.1
v -0.8 1.6 0.2
v -0.8 1.6 0.1
v -0.8 1.9 0.2
v -0.8 1.9 0.1
v -0.8 2 0.2
v -0.8 2 0.1
v -0.8 2.3 0.2
v -0.8 2.3 0.1
v -0.8 2.4 0.2
v -0.8 2.4 0.1
v -0.8 2.7 0.2
v -0.8 2.7 0.1
v -0.8 2.8 0.2
v -0.8 2.8 0.1
v -0.8 3.1 0.2
v -0.8 3.1 0.1
v -0.8 3.2 0.2
v -0.8 3.2 0.1
v -0.8 3.5 0.2
v -0.8 3.5 0.1
v -0.8 3.6 0.2
v -0.8 3.6 0.1
v -0.8 3.9 0.2
v -0.8 3.9 0.1
v -0.8 4 0.2
v -0.8 4 0.1
v -0.8 4.3 0.2
v -0.8 4.3 0.1
v -0.8 4.4 0.2
v -0.8 4.4 0.1
v -0.8 4.7 0.2
v -0.8 4.7 0.1
v -0.8 4.8 0.2
v -0.8 4.8 0.1
v -0.8 5.1 0.2
v -0.8 5.1 0.1
v -0.8 5.2 0.2
v -0.8 5.2 0.1
v -0.8 5.5 0.2
v -0.8 5.5 0.1
v -0.8 5.6 0.2
v -0.8 5.6 0.1
v -0.8 5.9 0.2
v -0.8 5.9 0.1
v -0.8 6 0.2
v -0.8 6 0.1
v -0.8 6.3 0.2
v -0.8 6.3 0.1
v -0.8 6.4 0.2
v -0.8 6.4 0.1
v -0.8 6.7 0.2
v -0.8 6.7 0.1
v -0.8 6.8 0.2
v -0.8 6.8 0.1
v -0.8 7.1 0.2
v -0.8 7.1 0.1
v -0.8 7.2 0.2
v -0.8 7.2 0.1
v -0.8 7.5 0.2
v -0.8 7.5 0.1
v -0.8 7.6 0.2
v -0.8 7.6 0.1
v -0.8 7.9 0.2
v -0.8 7.9 0.1
v -0.8 8 0.2
v -0.8 8 0.1
v -0.8 8.3 0.2
v -0.8 8.3 0.1
v -0.8 8.4 0.2
v -0.8 8.4 0.1
v -0.8 8.7 0.2
v -0.8 8.7 0.1
v -0.8 8.8 0.2
v -0.8 8.8 0.1
v -0.8 9.1 0.2
v -0.8 9.1 0.1
v -0.8 9.2 0.2
v -0.8 9.2 0.1
v -0.8 9.5 0.2
v -0.8 9.5 0.1
v -0.8 9.6 0.2
v -0.8 9.6 0.1
v -0.8 9.9 0.2
v -0.8 9.9 0.1
v -0.8 10 0.1
v -0.8 10 0
v 0 0 0.2
v 0 0 0
v 0 10 0.2
v 0 10 0
v -1 0 0.2
v -1 10 0.2
v -0.8 0 0.2
v -0.8 0.3 0.2
v -0.8 0.4 0.2
v -0.8 0.7 0.2
v -0.8 0.8 0.2
v -0.8 1.1 0.2
v -0.8 1.2 0.2
v -0.8 1.5 0.2
v -0.8 1.6 0.2
v -0.8 1.9 0.2
v -0.8 2 0.2
v -0.8 2.3 0.2
v -0.8 2.4 0.2
v -0.8 2.7 0.2
v -0.8 2.8 0.2
v -0.8 3.1 0.2
v -0.8 3.2 0.2
v -0.8 3.5 0.2
v -0.8 3.6 0.2
v -0.8 3.9 0.2
v -0.8 4 0.2
v -0.8 4.3 0.2
v -0.8 4.4 0.2
v -0.8 4.7 0.2
v -0.8 4.8 0.2
v -0.8 5.1 0.2
v -0.8 5.2 0.2
v -0.8 5.5 0.2
v -0.8 5.6 0.2
v -0.8 5.9 0.2
v -0.8 6 0.2
v -0.8 6.3 0.2
v -0.8 6.4 0.2
v -0.8 6.7 0.2
v -0.8 6.8 0.2
v -0.8 7.1 0.2
v -0.8 7.2 0.2
v -0.8 7.5 0.2
v -0.8 7.6 0.2
v -0.8 7.9 0.2
v -0.8 8 0.2
v -0.8 8.3 0.2
v -0.8 8.4 0.2
v -0.8 8.7 0.2
v -0.8 8.8 0.2
v -0.8 9.1 0.2
v -0.8 9.2 0.2
v -0.8 9.5 0.2
v -0.8 9.6 0.2
v -0.8 9.9 0.2
v -0.8 10 0.2
v -0.2 0 0.2
v -0.2 0.3 0.2
v -0.2 0.4 0.2
v -0.2 0.7 0.2
v -0.2 0.8 0.2
v -0.2 1.1 0.2
v -0.2 1.2 0.2
v -0.2 1.5 0.2
v -0.2 1.6 0.2
v -0.2 1.9 0.2
v -0.2 2 0.2
v -0.2 2.3 0.2
v -0.2 2.4 0.2
v -0.2 2.7 0.2
v -0.2 2.8 0.2
v -0.2 3.1 0.2
v -0.2 3.2 0.2
v -0.2 3.5 0.2
v -0.2 3.6 0.2
v -0.2 3.9 0.2
v -0.2 4 0.2
v -0.2 4.3 0.2
v -0.2 4.4 0.2
v -0.2 4.7 0.2
v -0.2 4.8 0.2
v -0.2 5.1 0.2
v -0.2 5.2 0.2
v -0.2 5.5 0.2
v -0.2 5.6 0.2
v -0.2 5.9 0.2
v -0.2 6 0.2
v -0.2 6.3 0.2
v -0.2 6.4 0.2
v -0.2 6.7 0.2
v -0.2 6.8 0.2
v -0.2 7.1 0.2
v -0.2 7.2 0.2
v -0.2 7.5 0.2
v -0.2 7.6 0.2
v -0.2 7.9 0.2
v -0.2 8 0.2
v -0.2 8.3 0.2
v -0.2 8.4 0.2
v -0.2 8.7 0.2
v -0.2 8.8 0.2
v -0.2 9.1 0.2
v -0.2 9.2 0.2
v -0.2 9.5 0.2
v -0.2 9.6 0.2
v -0.2 9.9 0.2
v -0.2 10 0.2
v 0 0 0.2
v 0 10 0.2
v -0.8 0.3 0.1
v -0.8 0.4 0.1
v -0.8 0.7 0.1
v -0.8 0.8 0.1
v -0.8 1.1 0.1
v -0.8 1.2 0.1
v -0.8 1.5 0.1
v -0.8 1.6 0.1
v -0.8 1.9 0.1
v -0.8 2 0.1
v -0.8 2.3 0.1
v -0.8 2.4 0.1
v -0.8 2.7 0.1
v -0.8 2.8 0.1
v -0.8 3.1 0.1
v -0.8 3.2 0.1
v -0.8 3.5 0.1
v -0.8 3.6 0.1
v -0.8 3.9 0.1
v -0.8 4 0.1
v -0.8 4.3 0.1
v -0.8 4.4 0.1
v -0.8 4.7 0.1
v -0.8 4.8 0.1
v -0.8 5.1 0.1
v -0.8 5.2 0.1
v -0.8 5.5 0.1
v -0.8 5.6 0.1
v -0.8 5.9 0.1
v -0.8 6 0.1
v -0.8 6.3 0.1
v -0.8 6.4 0.1
v -0.8 6.7 0.1
v -0.8 6.8 0.1
v -0.8 7.1 0.1
v -0.8 7.2 0.1
v -0.8 7.5 0.1
v -0.8 7.6 0.1
v -0.8 7.9 0.1
v -0.8 8 0.1
v -0.8 8.3 0.1
v -0.8 8.4 0.1
v -0.8 8.7 0.1
v -0.8 8.8 0.1
v -0.8 9.1 0.1
v -0.8 9.2 0.1
v -0.8 9.5 0.1
v -0.8 9.6 0.1
v -0.8 9.9 0.1
v -0.8 10 0.1
v -0.2 0.3 0.1
v -0.2 0.4 0.1
v -0.2 0.7 0.1
v -0.2 0.8 0.1
v -0.2 1.1 0.1
v -0.2 1.2 0.1
v -0.2 1.5 0.1
v -0.2 1.6 0.1
v -0.2 1.9 0.1
v -0.2 2 0.1
v -0.2 2.3 0.1
v -0.2 2.4 0.1
v -0.2 2.7 0.1
v -0.2 2.8 0.1
v -0.2 3.1 0.1
v -0.2 3.2 0.1
v -0.2 3.5 0.1
v -0.2 3.6 0.1
v -0.2 3.9 0.1
v -0.2 4 0.1
v -0.2 4.3 0.1
v -0.2 4.4 0.1
v -0.2 4.7 0.1
v -0.2 4.8 0.1
v -0.2 5.1 0.1
v -0.2 5.2 0.1
v -0.2 5.5 0.1
v -0.2 5.6 0.1
v -0.2 5.9 0.1
v -0.2 6 0.1
v -0.2 6.3 0.1
v -0.2 6.4 0.1
v -0.2 6.7 0.1
v -0.2 6.8 0.1
v -0.2 7.1 0.1
v -0.2 7.2 0.1
v -0.2 7.5 0.1
v -0.2 7.6 0.1
v -0.2 7.9 0.1
v -0.2 8 0.1
v -0.2 8.3 0.1
v -0.2 8.4 0.1
v -0.2 8.7 0.1
v -0.2 8.8 0.1
v -0.2 9.1 0.1
v -0.2 9.2 0.1
v -0.2 9.5 0.1
v -0.2 9.6 0.1
v -0.2 9.9 0.1
v -0.2 10 0.1
v -1 0 0
v -1 10 0
v -0.8 0 0
v -0.8 10 0
v -0.2 0 0
v -0.2 10 0
v 0 0 0
v 0 10 0
v -1 0 0.2
v -0.8 0 0.2
v -0.2 0 0.2
v 0 0 0.2
v -1 0 0
v -0.8 0 0
v -0.2 0 0
v 0 0 0
v -0.8 0.3 0.2
v -0.2 0.3 0.2
v -0.8 0.3 0.1
v -0.2 0.3 0.1
v -0.8 0.7 0.2
v -0.2 0.7 0.2
v -0.8 0.7 0.1
v -0.2 0.7 0.1
v -0.8 1.1 0.2
v -0.2 1.1 0.2
v -0.8 1.1 0.1
v -0.2 1.1 0.1
v -0.8 1.5 0.2
v -0.2 1.5 0.2
v -0.8 1.5 0.1
v -0.2 1.5 0.1
v -0.8 1.9 0.2
v -0.2 1.9 0.2
v -0.8 1.9 0.1
v -0.2 1.9 0.1
v -0.8 2.3 0.2
v -0.2 2.3 0.2
v -0.8 2.3 0.1
v -0.2 2.3 0.1
v -0.8 2.7 0.2
v -0.2 2.7 0.2
v -0.8 2.7 0.1
v -0.2 2.7 0.1
v -0.8 3.1 0.2
v -0.2 3.1 0.2
v -0.8 3.1 0.1
v -0.2 3.1 0.1
v -0.8 3.5 0.2
v -0.2 3.5 0.2
v -0.8 3.5 0.1
v -0.2 3.5 0.1
v -0.8 3.9 0.2
v -0.2 3.9 0.2
v -0.8 3.9 0.1
v -0.2 3.9 0.1
v -0.8 4.3 0.2
v -0.2 4.3 0.2
v -0.8 4.3 0.1
v -0.2 4.3 0.1
v -0.8 4.7 0.2
v -0.2 4.7 0.2
v -0.8 4.7 0.1
v -0.2 4.7 0.1
v -0.8 5.1 0.2
v -0.2 5.1 0.2
v -0.8 5.1 0.1
v -0.2 5.1 0.1
v -0.8 5.5 0.2
v -0.2 5.5 0.2
v -0.8 5.5 0.1
v -0.2 5.5 0.1
v -0.8 5.9 0.2
v -0.2 5.9 0.2
v -0.8 5.9 0.1
v -0.2 5.9 0.1
v -0.8 6.3 0.2
v -0.2 6.3 0.2
v -0.8 6.3 0.1
v -0.2 6.3 0.1
v -0.8 6.7 0.2
v -0.2 6.7 0.2
v -0.8 6.7 0.1
v -0.2 6.7 0.1
v -0.8 7.1 0.2
v -0.2 7.1 0.2
v -0.8 7.1 0.1
v -0.2 7.1 0.1
v -0.8 7.5 0.2
v -0.2 7.5 0.2
v -0.8 7.5 0.1
v -0.2 7.5 0.1
v -0.8 7.9 0.2
v -0.2 7.9 0.2
v -0.8 7.9 0.1
v -0.2 7.9 0.1
v -0.8 8.3 0.2
v -0.2 8.3 0.2
v -0.8 8.3 0.1
v -0.2 8.3 0.1
v -0.8 8.7 0.2
v -0.2 8.7 0.2
v -0.8 8.7 0.1
v -0.2 8.7 0.1
v -0.8 9.1 0.2
v -0.2 9.1 0.2
v -0.8 9.1 0.1
v -0.2 9.1 0.1
v -0.8 9.5 0.2
v -0.2 9.5 0.2
v -0.8 9.5 0.1
v -0.2 9.5 0.1
v -0.8 9.9 0.2
v -0.2 9.9 0.2
v -0.8 9.9 0.1
v -0.2 9.9 0.1
v -0.8 0.4 0.2
v -0.2 0.4 0.2
v -0.8 0.4 0.1
v -0.2 0.4 0.1
v -0.8 0.8 0.2
v -0.2 0.8 0.2
v -0.8 0.8 0.1
v -0.2 0.8 0.1
v -0.8 1.2 0.2
v -0.2 1.2 0.2
v -0.8 1.2 0.1
v -0.2 1.2 0.1
v -0.8 1.6 0.2
v -0.2 1.6 0.2
v -0.8 1.6 0.1
v -0.2 1.6 0.1
v -0.8 2 0.2
v -0.2 2 0.2
v -0.8 2 0.1
v -0.2 2 0.1
v -0.8 2.4 0.2
v -0.2 2.4 0.2
v -0.8 2.4 0.1
v -0.2 2.4 0.1
v -0.8 2.8 0.2
v -0.2 2.8 0.2
v -0.8 2.8 0.1
v -0.2 2.8 0.1
v -0.8 3.2 0.2
v -0.2 3.2 0.2
v -0.8 3.2 0.1
v -0.2 3.2 0.1
v -0.8 3.6 0.2
v -0.2 3.6 0.2
v -0.8 3.6 0.1
v -0.2 3.6 0.1
v -0.8 4 0.2
v -0.2 4 0.2
v -0.8 4 0.1
v -0.2 4 0.1
v -0.8 4.4 0.2
v -0.2 4.4 0.2
v -0.8 4.4 0.1
v -0.2 4.4 0.1
v -0.8 4.8 0.2
v -0.2 4.8 0.2
v -0.8 4.8 0.1
v -0.2 4.8 0.1
v -0.8 5.2 0.2
v -0.2 5.2 0.2
v -0.8 5.2 0.1
v -0.2 5.2 0.1
v -0.8 5.6 0.2
v -0.2 5.6 0.2
v -0.8 5.6 0.1
v -0.2 5.6 0.1
v -0.8 6 0.2
v -0.2 6 0.2
v -0.8 6 0.1
v -0.2 6 0.1
v -0.8 6.4 0.2
v -0.2 6.4 0.2
v -0.8 6.4 0.1
v -0.2 6.4 0.1
v -0.8 6.8 0.2
v -0.2 6.8 0.2
v -0.8 6.8 0.1
v -0.2 6.8 0.1
v -0.8 7.2 0.2
v -0.2 7.2 0.2
v -0.8 7.2 0.1
v -0.2 7.2 0.1
v -0.8 7.6 0.2
v -0.2 7.6 0.2
v -0.8 7.6 0.1
v -0.2 7.6 0.1
v -0.8 8 0.2
v -0.2 8 0.2
v -0.8 8 0.1
v -0.2 8 0.1
v -0.8 8.4 0.2
v -0.2 8.4 0.2
v -0.8 8.4 0.1
v -0.2 8.4 0.1
v -0.8 8.8 0.2
v -0.2 8.8 0.2
v -0.8 8.8 0.1
v -0.2 8.8 0.1
v -0.8 9.2 0.2
v -0.2 9.2 0.2
v -0.8 9.2 0.1
v -0.2 9.2 0.1
v -0.8 9.6 0.2
v -0.2 9.6 0.2
v -0.8 9.6 0.1
v -0.2 9.6 0.1
v -1 10 0.2
v -0.8 10 0.2
v -0.2 10 0.2
v 0 10 0.2
v -0.8 10 0.1
v -0.2 10 0.1
v -1 10 0
v -0.8 10 0
v -0.2 10 0
v 0 10 0

# faces
f 3/1/1 2/1/1 1/1/1
f 4/1/1 2/1/1 3/1/1
f 7/1/1 6/1/1 5/1/1
f 8/1/1 6/1/1 7/1/1
f 10/1/1 6/1/1 8/1/1
f 11/1/1 10/1/1 9/1/1
f 12/1/1 6/1/1 10/1/1
f 12/1/1 10/1/1 11/1/1
f 14/1/1 6/1/1 12/1/1
f 15/1/1 14/1/1 13/1/1
f 16/1/1 6/1/1 14/1/1
f 16/1/1 14/1/1 15/1/1
f 18/1/1 6/1/1 16/1/1
f 19/1/1 18/1/1 17/1/1
f 20/1/1 6/1/1 18/1/1
f 20/1/1 18/1/1 19/1/1
f 22/1/1 6/1/1 20/1/1
f 23/1/1 22/1/1 21/1/1
f 24/1/1 6/1/1 22/1/1
f 24/1/1 22/1/1 23/1/1
f 26/1/1 6/1/1 24/1/1
f 27/1/1 26/1/1 25/1/1
f 28/1/1 6/1/1 26/1/1
f 28/1/1 26/1/1 27/1/1
f 30/1/1 6/1/1 28/1/1
f 31/1/1 30/1/1 29/1/1
f 32/1/1 6/1/1 30/1/1
f 32/1/1 30/1/1 31/1/1
f 34/1/1 6/1/1 32/1/1
f 35/1/1 34/1/1 33/1/1
f 36/1/1 6/1/1 34/1/1
f 36/1/1 34/1/1 35/1/1
f 38/1/1 6/1/1 36/1/1
f 39/1/1 38/1/1 37/1/1
f 40/1/1 6/1/1 38/1/1
f 40/1/1 38/1/1 39/1/1
f 42/1/1 6/1/1 40/1/1
f 43/1/1 42/1/1 41/1/1
f 44/1/1 6/1/1 42/1/1
f 44/1/1 42/1/1 43/1/1
f 46/1/1 6/1/1 44/1/1
f 47/1/1 46/1/1 45/1/1
f 48/1/1 6/1/1 46/1/1
f 48/1/1 46/1/1 47/1/1
f 50/1/1 6/1/1 48/1/1
f 51/1/1 50/1/1 49/1/1
f 52/1/1 6/1/1 50/1/1
f 52/1/1 50/1/1 51/1/1
f 54/1/1 6/1/1 52/1/1
f 55/1/1 54/1/1 53/1/1
f 56/1/1 6/1/1 54/1/1
f 56/1/1 54/1/1 55/1/1
f 58/1/1 6/1/1 56/1/1
f 59/1/1 58/1/1 57/1/1
f 60/1/1 6/1/1 58/1/1
f 60/1/1 58/1/1 59/1/1
f 62/1/1 6/1/1 60/1/1
f 63/1/1 62/1/1 61/1/1
f 64/1/1 6/1/1 62/1/1
f 64/1/1 62/1/1 63/1/1
f 66/1/1 6/1/1 64/1/1
f 67/1/1 66/1/1 65/1/1
f 68/1/1 6/1/1 66/1/1
f 68/1/1 66/1/1 67/1/1
f 70/1/1 6/1/1 68/1/1
f 71/1/1 70/1/1 69/1/1
f 72/1/1 6/1/1 70/1/1
f 72/1/1 70/1/1 71/1/1
f 74/1/1 6/1/1 72/1/1
f 75/1/1 74/1/1 73/1/1
f 76/1/1 6/1/1 74/1/1
f 76/1/1 74/1/1 75/1/1
f 78/1/1 6/1/1 76/1/1
f 79/1/1 78/1/1 77/1/1
f 80/1/1 6/1/1 78/1/1
f 80/1/1 78/1/1 79/1/1
f 82/1/1 6/1/1 80/1/1
f 83/1/1 82/1/1 81/1/1
f 84/1/1 6/1/1 82/1/1
f 84/1/1 82/1/1 83/1/1
f 86/1/1 6/1/1 84/1/1
f 87/1/1 86/1/1 85/1/1
f 88/1/1 6/1/1 86/1/1
f 88/1/1 86/1/1 87/1/1
f 90/1/1 6/1/1 88/1/1
f 91/1/1 90/1/1 89/1/1
f 92/1/1 6/1/1 90/1/1
f 92/1/1 90/1/1 91/1/1
f 94/1/1 6/1/1 92/1/1
f 95/1/1 94/1/1 93/1/1
f 96/1/1 6/1/1 94/1/1
f 96/1/1 94/1/1 95/1/1
f 98/1/1 6/1/1 96/1/1
f 99/1/1 98/1/1 97/1/1
f 100/1/1 6/1/1 98/1/1
f 100/1/1 98/1/1 99/1/1
f 102/1/1 6/1/1 100/1/1
f 103/1/1 102/1/1 101/1/1
f 104/1/1 6/1/1 102/1/1
f 104/1/1 102/1/1 103/1/1
f 105/1/1 6/1/1 104/1/1
f 106/1/1 6/1/1 105/1/1
f 107/1/2 108/1/2 109/1/2
f 109/1/2 108/1/2 110/1/2
f 110/1/2 108/1/2 112/1/2
f 111/1/2 112/1/2 113/1/2
f 112/1/2 108/1/2 114/1/2
f 113/1/2 112/1/2 114/1/2
f 114/1/2 108/1/2 116/1/2
f 115/1/2 116/1/2 117/1/2
f 116/1/2 108/1/2 118/1/2
f 117/1/2 116/1/2 118/1/2
f 118/1/2 108/1/2 120/1/2
f 119/1/2 120/1/2 121/1/2
f 120/1/2 108/1/2 122/1/2
f 121/1/2 120/1/2 122/1/2
f 122/1/2 108/1/2 124/1/2
f 123/1/2 124/1/2 125/1/2
f 124/1/2 108/1/2 126/1/2
f 125/1/2 124/1/2 126/1/2
f 126/1/2 108/1/2 128/1/2
f 127/1/2 128/1/2 129/1/2
f 128/1/2 108/1/2 130/1/2
f 129/1/2 128/1/2 130/1/2
f 130/1/2 108/1/2 132/1/2
f 131/1/2 132/1/2 133/1/2
f 132/1/2 108/1/2 134/1/2
f 133/1/2 132/1/2 134/1/2
f 134/1/2 108/1/2 136/1/2
f 135/1/2 136/1/2 137/1/2
f 136/1/2 108/1/2 138/1/2
f 137/1/2 136/1/2 138/1/2
f 138/1/2 108/1/2 140/1/2
f 139/1/2 140/1/2 141/1/2
f 140/1/2 108/1/2 142/1/2
f 141/1/2 140/1/2 142/1/2
f 142/1/2 108/1/2 144/1/2
f 143/1/2 144/1/2 145/1/2
f 144/1/2 108/1/2 146/1/2
f 145/1/2 144/1/2 146/1/2
f 146/1/2 108/1/2 148/1/2
f 147/1/2 148/1/2 149/1/2
f 148/1/2 108/1/2 150/1/2
f 149/1/2 148/1/2 150/1/2
f 150/1/2 108/1/2 152/1/2
f 151/1/2 152/1/2 153/1/2
f 152/1/2 108/1/2 154/1/2
f 153/1/2 152/1/2 154/1/2
f 154/1/2 108/1/2 156/1/2
f 155/1/2 156/1/2 157/1/2
f 156/1/2 108/1/2 158/1/2
f 157/1/2 156/1/2 158/1/2
f 158/1/2 108/1/2 160/1/2
f 159/1/2 160/1/2 161/1/2
f 160/1/2 108/1/2 162/1/2
f 161/1/2 160/1/2 162/1/2
f 162/1/2 108/1/2 164/1/2
f 163/1/2 164/1/2 165/1/2
f 164/1/2 108/1/2 166/1/2
f 165/1/2 164/1/2 166/1/2
f 166/1/2 108/1/2 168/1/2
f 167/1/2 168/1/2 169/1/2
f 168/1/2 108/1/2 170/1/2
f 169/1/2 168/1/2 170/1/2
f 170/1/2 108/1/2 172/1/2
f 171/1/2 172/1/2 173/1/2
f 172/1/2 108/1/2 174/1/2
f 173/1/2 172/1/2 174/1/2
f 174/1/2 108/1/2 176/1/2
f 175/1/2 176/1/2 177/1/2
f 176/1/2 108/1/2 178/1/2
f 177/1/2 176/1/2 178/1/2
f 178/1/2 108/1/2 180/1/2
f 179/1/2 180/1/2 181/1/2
f 180/1/2 108/1/2 182/1/2
f 181/1/2 180/1/2 182/1/2
f 182/1/2 108/1/2 184/1/2
f 183/1/2 184/1/2 185/1/2
f 184/1/2 108/1/2 186/1/2
f 185/1/2 184/1/2 186/1/2
f 186/1/2 108/1/2 188/1/2
f 187/1/2 188/1/2 189/1/2
f 188/1/2 108/1/2 190/1/2
f 189/1/2 188/1/2 190/1/2
f 190/1/2 108/1/2 192/1/2
f 191/1/2 192/1/2 193/1/2
f 192/1/2 108/1/2 194/1/2
f 193/1/2 192/1/2 194/1/2
f 194/1/2 108/1/2 196/1/2
f 195/1/2 196/1/2 197/1/2
f 196/1/2 108/1/2 198/1/2
f 197/1/2 196/1/2 198/1/2
f 198/1/2 108/1/2 200/1/2
f 199/1/2 200/1/2 201/1/2
f 200/1/2 108/1/2 202/1/2
f 201/1/2 200/1/2 202/1/2
f 202/1/2 108/1/2 204/1/2
f 203/1/2 204/1/2 205/1/2
f 204/1/2 108/1/2 206/1/2
f 205/1/2 204/1/2 206/1/2
f 206/1/2 108/1/2 207/1/2
f 207/1/2 108/1/2 208/1/2
f 209/1/2 210/1/2 211/1/2
f 211/1/2 210/1/2 212/1/2
f 215/1/3 214/1/3 213/1/3
f 216/1/3 214/1/3 215/1/3
f 217/1/3 214/1/3 216/1/3
f 218/1/3 214/1/3 217/1/3
f 219/1/3 214/1/3 218/1/3
f 220/1/3 214/1/3 219/1/3
f 221/1/3 214/1/3 220/1/3
f 222/1/3 214/1/3 221/1/3
f 223/1/3 214/1/3 222/1/3
f 224/1/3 214/1/3 223/1/3
f 225/1/3 214/1/3 224/1/3
f 226/1/3 214/1/3 225/1/3
f 227/1/3 214/1/3 226/1/3
f 228/1/3 214/1/3 227/1/3
f 229/1/3 214/1/3 228/1/3
f 230/1/3 214/1/3 229/1/3
f 231/1/3 214/1/3 230/1/3
f 232/1/3 214/1/3 231/1/3
f 233/1/3 214/1/3 232/1/3
f 234/1/3 214/1/3 233/1/3
f 235/1/3 214/1/3 234/1/3
f 236/1/3 214/1/3 235/1/3
f 237/1/3 214/1/3 236/1/3
f 238/1/3 214/1/3 237/1/3
f 239/1/3 214/1/3 238/1/3
f 240/1/3 214/1/3 239/1/3
f 241/1/3 214/1/3 240/1/3
f 242/1/3 214/1/3 241/1/3
f 243/1/3 214/1/3 242/1/3
f 244/1/3 214/1/3 243/1/3
f 245/1/3 214/1/3 244/1/3
f 246/1/3 214/1/3 245/1/3
f 247/1/3 214/1/3 246/1/3
f 248/1/3 214/1/3 247/1/3
f 249/1/3 214/1/3 248/1/3
f 250/1/3 214/1/3 249/1/3
f 251/1/3 214/1/3 250/1/3
f 252/1/3 214/1/3 251/1/3
f 253/1/3 214/1/3 252/1/3
f 254/1/3 214/1/3 253/1/3
f 255/1/3 214/1/3 254/1/3
f 256/1/3 214/1/3 255/1/3
f 257/1/3 214/1/3 256/1/3
f 258/1/3 214/1/3 257/1/3
f 259/1/3 214/1/3 258/1/3
f 260/1/3 214/1/3 259/1/3
f 261/1/3 214/1/3 260/1/3
f 262/1/3 214/1/3 261/1/3
f 263/1/3 214/1/3 262/1/3
f 264/1/3 214/1/3 263/1/3
f 265/1/3 214/1/3 264/1/3
f 267/2/3 217/2/3 216/2/3
f 268/2/3 217/2/3 267/2/3
f 269/2/3 219/2/3 218/2/3
f 270/2/3 219/2/3 269/2/3
f 271/2/3 221/2/3 220/2/3
f 272/2/3 221/2/3 271/2/3
f 273/2/3 223/2/3 222/2/3
f 274/2/3 223/2/3 273/2/3
f 275/2/3 225/2/3 224/2/3
f 276/2/3 225/2/3 275/2/3
f 277/2/3 227/2/3 226/2/3
f 278/2/3 227/2/3 277/2/3
f 279/2/3 229/2/3 228/2/3
f 280/2/3 229/2/3 279/2/3
f 281/2/3 231/2/3 230/2/3
f 282/2/3 231/2/3 281/2/3
f 283/2/3 233/2/3 232/2/3
f 284/2/3 233/2/3 283/2/3
f 285/2/3 235/2/3 234/2/3
f 286/2/3 235/2/3 285/2/3
f 287/2/3 237/2/3 236/2/3
f 288/2/3 237/2/3 287/2/3
f 289/2/3 239/2/3 238/2/3
f 290/2/3 239/2/3 289/2/3
f 291/2/3 241/2/3 240/2/3
f 292/2/3 241/2/3 291/2/3
f 293/2/3 243/2/3 242/2/3
f 294/2/3 243/2/3 293/2/3
f 295/2/3 245/2/3 244/2/3
f 296/2/3 245/2/3 295/2/3
f 297/2/3 247/2/3 246/2/3
f 298/2/3 247/2/3 297/2/3
f 299/2/3 249/2/3 248/2/3
f 300/2/3 249/2/3 299/2/3
f 301/2/3 251/2/3 250/2/3
f 302/2/3 251/2/3 301/2/3
f 303/2/3 253/2/3 252/2/3
f 304/2/3 253/2/3 303/2/3
f 305/2/3 255/2/3 254/2/3
f 306/2/3 255/2/3 305/2/3
f 307/2/3 257/2/3 256/2/3
f 308/2/3 257/2/3 307/2/3
f 309/2/3 259/2/3 258/2/3
f 310/2/3 259/2/3 309/2/3
f 311/2/3 261/2/3 260/2/3
f 312/2/3 261/2/3 311/2/3
f 313/2/3 263/2/3 262/2/3
f 314/2/3 263/2/3 313/2/3
f 315/2/3 265/2/3 264/2/3
f 316/2/3 265/2/3 315/2/3
f 317/1/3 290/1/3 289/1/3
f 317/1/3 314/1/3 313/1/3
f 317/1/3 316/1/3 315/1/3
f 317/1/3 315/1/3 314/1/3
f 317/1/3 268/1/3 267/1/3
f 317/1/3 313/1/3 312/1/3
f 317/1/3 312/1/3 311/1/3
f 317/1/3 311/1/3 310/1/3
f 317/1/3 270/1/3 269/1/3
f 317/1/3 309/1/3 308/1/3
f 317/1/3 310/1/3 309/1/3
f 317/1/3 307/1/3 306/1/3
f 317/1/3 272/1/3 271/1/3
f 317/1/3 305/1/3 304/1/3
f 317/1/3 308/1/3 307/1/3
f 317/1/3 303/1/3 302/1/3
f 317/1/3 274/1/3 273/1/3
f 317/1/3 301/1/3 300/1/3
f 317/1/3 306/1/3 305/1/3
f 317/1/3 299/1/3 298/1/3
f 317/1/3 276/1/3 275/1/3
f 317/1/3 297/1/3 296/1/3
f 317/1/3 304/1/3 303/1/3
f 317/1/3 295/1/3 294/1/3
f 317/1/3 278/1/3 277/1/3
f 317/1/3 293/1/3 292/1/3
f 317/1/3 302/1/3 301/1/3
f 317/1/3 291/1/3 290/1/3
f 317/1/3 280/1/3 279/1/3
f 317/1/3 289/1/3 288/1/3
f 317/1/3 300/1/3 299/1/3
f 317/1/3 287/1/3 286/1/3
f 317/1/3 282/1/3 281/1/3
f 317/1/3 285/1/3 284/1/3
f 317/1/3 298/1/3 297/1/3
f 317/1/3 283/1/3 282/1/3
f 317/1/3 284/1/3 283/1/3
f 317/1/3 281/1/3 280/1/3
f 317/1/3 296/1/3 295/1/3
f 317/1/3 279/1/3 278/1/3
f 317/1/3 286/1/3 285/1/3
f 317/1/3 277/1/3 276/1/3
f 317/1/3 294/1/3 293/1/3
f 317/1/3 275/1/3 274/1/3
f 317/1/3 288/1/3 287/1/3
f 317/1/3 273/1/3 272/1/3
f 317/1/3 292/1/3 291/1/3
f 317/1/3 271/1/3 270/1/3
f 317/1/3 267/1/3 266/1/3
f 317/1/3 269/1/3 268/1/3
f 318/1/3 316/1/3 317/1/3
f 319/2/4 320/2/4 369/2/4
f 369/2/4 320/2/4 370/2/4
f 321/2/4 322/2/4 371/2/4
f 371/2/4 322/2/4 372/2/4
f 323/2/4 324/2/4 373/2/4
f 373/2/4 324/2/4 374/2/4
f 325/2/4 326/2/4 375/2/4
f 375/2/4 326/2/4 376/2/4
f 327/2/4 328/2/4 377/2/4
f 377/2/4 328/2/4 378/2/4
f 329/2/4 330/2/4 379/2/4
f 379/2/4 330/2/4 380/2/4
f 331/2/4 332/2/4 381/2/4
f 381/2/4 332/2/4 382/2/4
f 333/2/4 334/2/4 383/2/4
f 383/2/4 334/2/4 384/2/4
f 335/2/4 336/2/4 385/2/4
f 385/2/4 336/2/4 386/2/4
f 337/2/4 338/2/4 387/2/4
f 387/2/4 338/2/4 388/2/4
f 339/2/4 340/2/4 389/2/4
f 389/2/4 340/2/4 390/2/4
f 341/2/4 342/2/4 391/2/4
f 391/2/4 342/2/4 392/2/4
f 343/2/4 344/2/4 393/2/4
f 393/2/4 344/2/4 394/2/4
f 345/2/4 346/2/4 395/2/4
f 395/2/4 346/2/4 396/2/4
f 347/2/4 348/2/4 397/2/4
f 397/2/4 348/2/4 398/2/4
f 349/2/4 350/2/4 399/2/4
f 399/2/4 350/2/4 400/2/4
f 351/2/4 352/2/4 401/2/4
f 401/2/4 352/2/4 402/2/4
f 353/2/4 354/2/4 403/2/4
f 403/2/4 354/2/4 404/2/4
f 355/2/4 356/2/4 405/2/4
f 405/2/4 356/2/4 406/2/4
f 357/2/4 358/2/4 407/2/4
f 407/2/4 358/2/4 408/2/4
f 359/2/4 360/2/4 409/2/4
f 409/2/4 360/2/4 410/2/4
f 361/2/4 362/2/4 411/2/4
f 411/2/4 362/2/4 412/2/4
f 363/2/4 364/2/4 413/2/4
f 413/2/4 364/2/4 414/2/4
f 365/2/4 366/2/4 415/2/4
f 415/2/4 366/2/4 416/2/4
f 367/2/4 368/2/4 417/2/4
f 417/2/4 368/2/4 418/2/4
f 419/1/4 420/1/4 421/1/4
f 421/1/4 420/1/4 422/1/4
f 423/1/4 424/1/4 425/1/4
f 425/1/4 424/1/4 426/1/4
f 431/1/5 428/1/5 427/1/5
f 432/1/5 428/1/5 431/1/5
f 433/1/5 430/1/5 429/1/5
f 434/1/5 430/1/5 433/1/5
f 437/2/5 436/2/5 435/2/5
f 438/2/5 436/2/5 437/2/5
f 441/2/5 440/2/5 439/2/5
f 442/2/5 440/2/5 441/2/5
f 445/2/5 444/2/5 443/2/5
f 446/2/5 444/2/5 445/2/5
f 449/2/5 448/2/5 447/2/5
f 450/2/5 448/2/5 449/2/5
f 453/2/5 452/2/5 451/2/5
f 454/2/5 452/2/5 453/2/5
f 457/2/5 456/2/5 455/2/5
f 458/2/5 456/2/5 457/2/5
f 461/2/5 460/2/5 459/2/5
f 462/2/5 460/2/5 461/2/5
f 465/2/5 464/2/5 463/2/5
f 466/2/5 464/2/5 465/2/5
f 469/2/5 468/2/5 467/2/5
f 470/2/5 468/2/5 469/2/5
f 473/2/5 472/2/5 471/2/5
f 474/2/5 472/2/5 473/2/5
f 477/2/5 476/2/5 475/2/5
f 478/2/5 476/2/5 477/2/5
f 481/2/5 480/2/5 479/2/5
f 482/2/5 480/2/5 481/2/5
f 485/2/5 484/2/5 483/2/5
f 486/2/5 484/2/5 485/2/5
f 489/2/5 488/2/5 487/2/5
f 490/2/5 488/2/5 489/2/5
f 493/2/5 492/2/5 491/2/5
f 494/2/5 492/2/5 493/2/5
f 497/2/5 496/2/5 495/2/5
f 498/2/5 496/2/5 497/2/5
f 501/2/5 500/2/5 499/2/5
f 502/2/5 500/2/5 501/2/5
f 505/2/5 504/2/5 503/2/5
f 506/2/5 504/2/5 505/2/5
f 509/2/5 508/2/5 507/2/5
f 510/2/5 508/2/5 509/2/5
f 513/2/5 512/2/5 511/2/5
f 514/2/5 512/2/5 513/2/5
f 517/2/5 516/2/5 515/2/5
f 518/2/5 516/2/5 517/2/5
f 521/2/5 520/2/5 519/2/5
f 522/2/5 520/2/5 521/2/5
f 525/2/5 524/2/5 523/2/5
f 526/2/5 524/2/5 525/2/5
f 529/2/5 528/2/5 527/2/5
f 530/2/5 528/2/5 529/2/5
f 533/2/5 532/2/5 531/2/5
f 534/2/5 532/2/5 533/2/5
f 535/2/6 536/2/6 537/2/6
f 537/2/6 536/2/6 538/2/6
f 539/2/6 540/2/6 541/2/6
f 541/2/6 540/2/6 542/2/6
f 543/2/6 544/2/6 545/2/6
f 545/2/6 544/2/6 546/2/6
f 547/2/6 548/2/6 549/2/6
f 549/2/6 548/2/6 550/2/6
f 551/2/6 552/2/6 553/2/6
f 553/2/6 552/2/6 554/2/6
f 555/2/6 556/2/6 557/2/6
f 557/2/6 556/2/6 558/2/6
f 559/2/6 560/2/6 561/2/6
f 561/2/6 560/2/6 562/2/6
f 563/2/6 564/2/6 565/2/6
f 565/2/6 564/2/6 566/2/6
f 567/2/6 568/2/6 569/2/6
f 569/2/6 568/2/6 570/2/6
f 571/2/6 572/2/6 573/2/6
f 573/2/6 572/2/6 574/2/6
f 575/2/6 576/2/6 577/2/6
f 577/2/6 576/2/6 578/2/6
f 579/2/6 580/2/6 581/2/6
f 581/2/6 580/2/6 582/2/6
f 583/2/6 584/2/6 585/2/6
f 585/2/6 584/2/6 586/2/6
f 587/2/6 588/2/6 589/2/6
f 589/2/6 588/2/6 590/2/6
f 591/2/6 592/2/6 593/2/6
f 593/2/6 592/2/6 594/2/6
f 595/2/6 596/2/6 597/2/6
f 597/2/6 596/2/6 598/2/6
f 599/2/6 600/2/6 601/2/6
f 601/2/6 600/2/6 602/2/6
f 603/2/6 604/2/6 605/2/6
f 605/2/6 604/2/6 606/2/6
f 607/2/6 608/2/6 609/2/6
f 609/2/6 608/2/6 610/2/6
f 611/2/6 612/2/6 613/2/6
f 613/2/6 612/2/6 614/2/6
f 615/2/6 616/2/6 617/2/6
f 617/2/6 616/2/6 618/2/6
f 619/2/6 620/2/6 621/2/6
f 621/2/6 620/2/6 622/2/6
f 623/2/6 624/2/6 625/2/6
f 625/2/6 624/2/6 626/2/6
f 627/2/6 628/2/6 629/2/6
f 629/2/6 628/2/6 630/2/6
f 631/1/6 632/1/6 635/1/6
f 632/2/6 633/2/6 635/2/6
f 633/1/6 634/1/6 636/1/6
f 635/2/6 633/2/6 636/2/6
f 631/1/6 635/1/6 637/1/6
f 637/1/6 635/1/6 638/1/6
f 636/1/6 634/1/6 639/1/6
f 639/1/6 634/1/6 640/1/6
