# MagicaVoxel @ Ephtracy

# group
o 

# material
mtllib lightsaber.mtl
usemtl palette

# normals
vn -1 0 0
vn 1 0 0
vn 0 0 1
vn 0 0 -1
vn 0 -1 0
vn 0 1 0

# texcoords
vt 0.705078 0.5
vt 0.970703 0.5
vt 0.994141 0.5

# verts
v 0 0 -0.1
v 0 0 -0.2
v 0 0 -0.3
v 0 0.7 -0.1
v 0 0.7 -0.2
v 0 0.8 -0.1
v 0 0.8 -0.3
v 0 1.3 -0.1
v 0 1.3 -0.3
v 0 1.4 -0.1
v 0 1.4 -0.3
v 0 1.7 -0.1
v 0 1.7 -0.3
v 0 1.8 -0.1
v 0 1.8 -0.3
v 0 1.9 -0.1
v 0 1.9 -0.3
v 0 2 -0.1
v 0 2 -0.3
v 0.1 0 0
v 0.1 0 -0.1
v 0.1 0 -0.3
v 0.1 0 -0.4
v 0.1 0.7 -0.1
v 0.1 0.7 -0.3
v 0.1 0.7 -0.4
v 0.1 0.8 0
v 0.1 0.8 -0.1
v 0.1 0.8 -0.3
v 0.1 0.8 -0.4
v 0.1 1.3 0
v 0.1 1.3 -0.1
v 0.1 1.3 -0.3
v 0.1 1.3 -0.4
v 0.1 1.4 0
v 0.1 1.4 -0.1
v 0.1 1.4 -0.3
v 0.1 1.4 -0.4
v 0.1 1.7 0
v 0.1 1.7 -0.1
v 0.1 1.7 -0.3
v 0.1 1.7 -0.4
v 0.1 1.8 0
v 0.1 1.8 -0.1
v 0.1 1.8 -0.3
v 0.1 1.8 -0.4
v 0.1 1.9 0
v 0.1 1.9 -0.1
v 0.1 1.9 -0.3
v 0.1 1.9 -0.4
v 0.1 2 -0.1
v 0.1 2 -0.3
v 0.1 2.1 0
v 0.1 2.1 -0.1
v 0.1 2.1 -0.3
v 0.1 2.1 -0.4
v 0.1 5.5 -0.1
v 0.1 5.5 -0.3
v 0.2 2.1 0
v 0.2 2.1 -0.1
v 0.2 2.1 -0.3
v 0.2 2.1 -0.4
v 0.2 2.2 0
v 0.2 2.2 -0.1
v 0.2 2.2 -0.3
v 0.2 2.2 -0.4
v 0.3 0 0
v 0.3 0 -0.1
v 0.3 0 -0.3
v 0.3 0 -0.4
v 0.3 0.7 0
v 0.3 0.7 -0.1
v 0.3 0.7 -0.3
v 0.3 0.8 0
v 0.3 0.8 -0.1
v 0.3 0.8 -0.3
v 0.3 0.8 -0.4
v 0.3 1.3 0
v 0.3 1.3 -0.1
v 0.3 1.3 -0.3
v 0.3 1.3 -0.4
v 0.3 1.4 0
v 0.3 1.4 -0.1
v 0.3 1.4 -0.3
v 0.3 1.4 -0.4
v 0.3 1.7 0
v 0.3 1.7 -0.1
v 0.3 1.7 -0.3
v 0.3 1.7 -0.4
v 0.3 1.8 0
v 0.3 1.8 -0.1
v 0.3 1.8 -0.3
v 0.3 1.8 -0.4
v 0.3 2 0
v 0.3 2 -0.1
v 0.3 2 -0.3
v 0.3 2 -0.4
v 0.3 2.1 -0.1
v 0.3 2.1 -0.3
v 0.3 2.2 0
v 0.3 2.2 -0.1
v 0.3 2.2 -0.3
v 0.3 2.2 -0.4
v 0.3 2.3 -0.1
v 0.3 2.3 -0.3
v 0.3 5.5 -0.1
v 0.3 5.5 -0.3
v 0.4 0 -0.1
v 0.4 0 -0.2
v 0.4 0 -0.3
v 0.4 0.7 -0.2
v 0.4 0.7 -0.3
v 0.4 0.8 -0.1
v 0.4 0.8 -0.3
v 0.4 1.3 -0.1
v 0.4 1.3 -0.3
v 0.4 1.4 -0.1
v 0.4 1.4 -0.3
v 0.4 1.7 -0.1
v 0.4 1.7 -0.3
v 0.4 1.8 -0.1
v 0.4 1.8 -0.3
v 0.4 2.1 -0.1
v 0.4 2.1 -0.3
v 0.4 2.3 -0.1
v 0.4 2.3 -0.3
v 0.1 0 0
v 0.1 0.8 0
v 0.1 1.3 0
v 0.1 1.4 0
v 0.1 1.7 0
v 0.1 1.8 0
v 0.1 1.9 0
v 0.1 2.1 0
v 0.2 0 0
v 0.2 0.7 0
v 0.2 1.9 0
v 0.2 2 0
v 0.2 2.1 0
v 0.2 2.2 0
v 0.3 0 0
v 0.3 0.7 0
v 0.3 0.8 0
v 0.3 1.3 0
v 0.3 1.4 0
v 0.3 1.7 0
v 0.3 1.8 0
v 0.3 2 0
v 0.3 2.2 0
v 0 0 -0.1
v 0 0.7 -0.1
v 0 0.8 -0.1
v 0 1.3 -0.1
v 0 1.4 -0.1
v 0 1.7 -0.1
v 0 1.8 -0.1
v 0 1.9 -0.1
v 0 2 -0.1
v 0.1 0 -0.1
v 0.1 0.7 -0.1
v 0.1 0.8 -0.1
v 0.1 1.3 -0.1
v 0.1 1.4 -0.1
v 0.1 1.7 -0.1
v 0.1 1.8 -0.1
v 0.1 1.9 -0.1
v 0.1 2 -0.1
v 0.1 2.1 -0.1
v 0.1 5.5 -0.1
v 0.2 2.1 -0.1
v 0.2 2.2 -0.1
v 0.3 0 -0.1
v 0.3 0.7 -0.1
v 0.3 0.8 -0.1
v 0.3 1.3 -0.1
v 0.3 1.4 -0.1
v 0.3 1.7 -0.1
v 0.3 1.8 -0.1
v 0.3 2 -0.1
v 0.3 2.1 -0.1
v 0.3 2.2 -0.1
v 0.3 2.3 -0.1
v 0.3 5.5 -0.1
v 0.4 0 -0.1
v 0.4 0.8 -0.1
v 0.4 1.3 -0.1
v 0.4 1.4 -0.1
v 0.4 1.7 -0.1
v 0.4 1.8 -0.1
v 0.4 2.1 -0.1
v 0.4 2.3 -0.1
v 0 0 -0.3
v 0 0.8 -0.3
v 0 1.3 -0.3
v 0 1.4 -0.3
v 0 1.7 -0.3
v 0 1.8 -0.3
v 0 1.9 -0.3
v 0 2 -0.3
v 0.1 0 -0.3
v 0.1 0.7 -0.3
v 0.1 0.8 -0.3
v 0.1 1.3 -0.3
v 0.1 1.4 -0.3
v 0.1 1.7 -0.3
v 0.1 1.8 -0.3
v 0.1 1.9 -0.3
v 0.1 2 -0.3
v 0.1 2.1 -0.3
v 0.1 5.5 -0.3
v 0.2 2.1 -0.3
v 0.2 2.2 -0.3
v 0.3 0 -0.3
v 0.3 0.7 -0.3
v 0.3 0.8 -0.3
v 0.3 1.3 -0.3
v 0.3 1.4 -0.3
v 0.3 1.7 -0.3
v 0.3 1.8 -0.3
v 0.3 2 -0.3
v 0.3 2.1 -0.3
v 0.3 2.2 -0.3
v 0.3 2.3 -0.3
v 0.3 5.5 -0.3
v 0.4 0 -0.3
v 0.4 0.7 -0.3
v 0.4 0.8 -0.3
v 0.4 1.3 -0.3
v 0.4 1.4 -0.3
v 0.4 1.7 -0.3
v 0.4 1.8 -0.3
v 0.4 2.1 -0.3
v 0.4 2.3 -0.3
v 0.1 0 -0.4
v 0.1 0.7 -0.4
v 0.1 0.8 -0.4
v 0.1 1.3 -0.4
v 0.1 1.4 -0.4
v 0.1 1.7 -0.4
v 0.1 1.8 -0.4
v 0.1 1.9 -0.4
v 0.1 2.1 -0.4
v 0.2 0 -0.4
v 0.2 0.7 -0.4
v 0.2 1.9 -0.4
v 0.2 2 -0.4
v 0.2 2.1 -0.4
v 0.2 2.2 -0.4
v 0.3 0 -0.4
v 0.3 0.8 -0.4
v 0.3 1.3 -0.4
v 0.3 1.4 -0.4
v 0.3 1.7 -0.4
v 0.3 1.8 -0.4
v 0.3 2 -0.4
v 0.3 2.2 -0.4
v 0.1 0 0
v 0.2 0 0
v 0.3 0 0
v 0 0 -0.1
v 0.1 0 -0.1
v 0.2 0 -0.1
v 0.3 0 -0.1
v 0.4 0 -0.1
v 0 0 -0.2
v 0.1 0 -0.2
v 0.3 0 -0.2
v 0.4 0 -0.2
v 0 0 -0.3
v 0.1 0 -0.3
v 0.2 0 -0.3
v 0.3 0 -0.3
v 0.4 0 -0.3
v 0.1 0 -0.4
v 0.2 0 -0.4
v 0.3 0 -0.4
v 0 2 -0.1
v 0.1 2 -0.1
v 0 2 -0.3
v 0.1 2 -0.3
v 0.1 2.1 0
v 0.2 2.1 0
v 0.1 2.1 -0.1
v 0.2 2.1 -0.1
v 0.1 2.1 -0.3
v 0.2 2.1 -0.3
v 0.1 2.1 -0.4
v 0.2 2.1 -0.4
v 0.2 2.2 0
v 0.3 2.2 0
v 0.2 2.2 -0.1
v 0.3 2.2 -0.1
v 0.2 2.2 -0.3
v 0.3 2.2 -0.3
v 0.2 2.2 -0.4
v 0.3 2.2 -0.4
v 0.3 2.3 -0.1
v 0.4 2.3 -0.1
v 0.3 2.3 -0.3
v 0.4 2.3 -0.3
v 0.1 5.5 -0.1
v 0.3 5.5 -0.1
v 0.1 5.5 -0.3
v 0.3 5.5 -0.3

# faces
f 4/2/1 2/2/1 1/2/1
f 5/3/1 3/3/1 2/3/1
f 5/2/1 2/2/1 4/2/1
f 6/3/1 5/3/1 4/3/1
f 7/3/1 3/3/1 5/3/1
f 7/3/1 5/3/1 6/3/1
f 8/2/1 7/2/1 6/2/1
f 9/2/1 7/2/1 8/2/1
f 10/3/1 9/3/1 8/3/1
f 11/3/1 9/3/1 10/3/1
f 12/2/1 11/2/1 10/2/1
f 13/2/1 11/2/1 12/2/1
f 14/3/1 13/3/1 12/3/1
f 15/3/1 13/3/1 14/3/1
f 16/2/1 15/2/1 14/2/1
f 17/2/1 15/2/1 16/2/1
f 18/3/1 17/3/1 16/3/1
f 19/3/1 17/3/1 18/3/1
f 24/3/1 21/3/1 20/3/1
f 25/2/1 23/2/1 22/2/1
f 26/2/1 23/2/1 25/2/1
f 27/3/1 24/3/1 20/3/1
f 28/3/1 24/3/1 27/3/1
f 29/3/1 26/3/1 25/3/1
f 30/3/1 26/3/1 29/3/1
f 31/2/1 28/2/1 27/2/1
f 32/2/1 28/2/1 31/2/1
f 33/2/1 30/2/1 29/2/1
f 34/2/1 30/2/1 33/2/1
f 35/3/1 32/3/1 31/3/1
f 36/3/1 32/3/1 35/3/1
f 37/3/1 34/3/1 33/3/1
f 38/3/1 34/3/1 37/3/1
f 39/2/1 36/2/1 35/2/1
f 40/2/1 36/2/1 39/2/1
f 41/2/1 38/2/1 37/2/1
f 42/2/1 38/2/1 41/2/1
f 43/3/1 40/3/1 39/3/1
f 44/3/1 40/3/1 43/3/1
f 45/3/1 42/3/1 41/3/1
f 46/3/1 42/3/1 45/3/1
f 47/2/1 44/2/1 43/2/1
f 48/2/1 44/2/1 47/2/1
f 49/2/1 46/2/1 45/2/1
f 50/2/1 46/2/1 49/2/1
f 51/3/1 48/3/1 47/3/1
f 52/3/1 50/3/1 49/3/1
f 53/3/1 51/3/1 47/3/1
f 54/1/1 52/1/1 51/1/1
f 54/3/1 51/3/1 53/3/1
f 55/3/1 50/3/1 52/3/1
f 55/1/1 52/1/1 54/1/1
f 56/3/1 50/3/1 55/3/1
f 57/1/1 55/1/1 54/1/1
f 58/1/1 55/1/1 57/1/1
f 63/3/1 60/3/1 59/3/1
f 64/3/1 60/3/1 63/3/1
f 65/3/1 62/3/1 61/3/1
f 66/3/1 62/3/1 65/3/1
f 67/2/2 68/2/2 71/2/2
f 71/2/2 68/2/2 72/2/2
f 69/3/2 70/3/2 73/3/2
f 71/3/2 72/3/2 74/3/2
f 74/3/2 72/3/2 75/3/2
f 73/3/2 70/3/2 76/3/2
f 76/3/2 70/3/2 77/3/2
f 74/2/2 75/2/2 78/2/2
f 78/2/2 75/2/2 79/2/2
f 76/2/2 77/2/2 80/2/2
f 80/2/2 77/2/2 81/2/2
f 78/3/2 79/3/2 82/3/2
f 82/3/2 79/3/2 83/3/2
f 80/3/2 81/3/2 84/3/2
f 84/3/2 81/3/2 85/3/2
f 82/2/2 83/2/2 86/2/2
f 86/2/2 83/2/2 87/2/2
f 84/2/2 85/2/2 88/2/2
f 88/2/2 85/2/2 89/2/2
f 86/3/2 87/3/2 90/3/2
f 90/3/2 87/3/2 91/3/2
f 88/3/2 89/3/2 92/3/2
f 92/3/2 89/3/2 93/3/2
f 90/2/2 91/2/2 94/2/2
f 94/2/2 91/2/2 95/2/2
f 92/2/2 93/2/2 96/2/2
f 96/2/2 93/2/2 97/2/2
f 94/3/2 95/3/2 98/3/2
f 96/3/2 97/3/2 99/3/2
f 94/3/2 98/3/2 100/3/2
f 100/3/2 98/3/2 101/3/2
f 99/3/2 97/3/2 102/3/2
f 102/3/2 97/3/2 103/3/2
f 104/1/2 105/1/2 106/1/2
f 106/1/2 105/1/2 107/1/2
f 108/3/2 109/3/2 111/3/2
f 109/2/2 110/2/2 111/2/2
f 111/2/2 110/2/2 112/2/2
f 108/3/2 111/3/2 113/3/2
f 111/3/2 112/3/2 113/3/2
f 113/3/2 112/3/2 114/3/2
f 113/2/2 114/2/2 115/2/2
f 115/2/2 114/2/2 116/2/2
f 115/3/2 116/3/2 117/3/2
f 117/3/2 116/3/2 118/3/2
f 117/2/2 118/2/2 119/2/2
f 119/2/2 118/2/2 120/2/2
f 119/3/2 120/3/2 121/3/2
f 121/3/2 120/3/2 122/3/2
f 121/2/2 122/2/2 123/2/2
f 123/2/2 122/2/2 124/2/2
f 123/3/2 124/3/2 125/3/2
f 125/3/2 124/3/2 126/3/2
f 135/3/3 128/3/3 127/3/3
f 136/3/3 128/3/3 135/3/3
f 137/3/3 134/3/3 133/3/3
f 137/2/3 133/2/3 132/2/3
f 138/3/3 134/3/3 137/3/3
f 139/3/3 134/3/3 138/3/3
f 141/2/3 136/2/3 135/2/3
f 142/3/3 128/3/3 136/3/3
f 142/2/3 136/2/3 141/2/3
f 143/2/3 129/2/3 128/2/3
f 143/3/3 128/3/3 142/3/3
f 144/3/3 130/3/3 129/3/3
f 144/2/3 129/2/3 143/2/3
f 145/2/3 131/2/3 130/2/3
f 145/3/3 130/3/3 144/3/3
f 146/3/3 132/3/3 131/3/3
f 146/2/3 131/2/3 145/2/3
f 147/2/3 137/2/3 132/2/3
f 147/3/3 132/3/3 146/3/3
f 147/2/3 138/2/3 137/2/3
f 148/3/3 140/3/3 139/3/3
f 148/2/3 138/2/3 147/2/3
f 148/3/3 139/3/3 138/3/3
f 149/3/3 140/3/3 148/3/3
f 159/2/3 151/2/3 150/2/3
f 160/3/3 152/3/3 151/3/3
f 160/2/3 151/2/3 159/2/3
f 161/2/3 153/2/3 152/2/3
f 161/3/3 152/3/3 160/3/3
f 162/3/3 154/3/3 153/3/3
f 162/2/3 153/2/3 161/2/3
f 163/2/3 155/2/3 154/2/3
f 163/3/3 154/3/3 162/3/3
f 164/3/3 156/3/3 155/3/3
f 164/2/3 155/2/3 163/2/3
f 165/2/3 157/2/3 156/2/3
f 165/3/3 156/3/3 164/3/3
f 166/3/3 158/3/3 157/3/3
f 166/2/3 157/2/3 165/2/3
f 167/3/3 158/3/3 166/3/3
f 170/1/3 169/1/3 168/1/3
f 171/1/3 169/1/3 170/1/3
f 181/1/3 169/1/3 171/1/3
f 182/1/3 169/1/3 181/1/3
f 183/1/3 169/1/3 182/1/3
f 184/3/3 173/3/3 172/3/3
f 184/3/3 174/3/3 173/3/3
f 185/2/3 175/2/3 174/2/3
f 185/3/3 174/3/3 184/3/3
f 186/3/3 176/3/3 175/3/3
f 186/2/3 175/2/3 185/2/3
f 187/2/3 177/2/3 176/2/3
f 187/3/3 176/3/3 186/3/3
f 188/3/3 178/3/3 177/3/3
f 188/2/3 177/2/3 187/2/3
f 189/2/3 180/2/3 179/2/3
f 189/3/3 178/3/3 188/3/3
f 189/2/3 179/2/3 178/2/3
f 190/3/3 182/3/3 181/3/3
f 190/2/3 180/2/3 189/2/3
f 190/3/3 181/3/3 180/3/3
f 191/3/3 182/3/3 190/3/3
f 192/3/4 193/3/4 200/3/4
f 200/3/4 193/3/4 201/3/4
f 193/2/4 194/2/4 202/2/4
f 201/3/4 193/3/4 202/3/4
f 194/3/4 195/3/4 203/3/4
f 202/2/4 194/2/4 203/2/4
f 195/2/4 196/2/4 204/2/4
f 203/3/4 195/3/4 204/3/4
f 196/3/4 197/3/4 205/3/4
f 204/2/4 196/2/4 205/2/4
f 197/2/4 198/2/4 206/2/4
f 205/3/4 197/3/4 206/3/4
f 198/3/4 199/3/4 207/3/4
f 206/2/4 198/2/4 207/2/4
f 207/3/4 199/3/4 208/3/4
f 209/1/4 210/1/4 211/1/4
f 211/1/4 210/1/4 212/1/4
f 212/1/4 210/1/4 222/1/4
f 222/1/4 210/1/4 223/1/4
f 223/1/4 210/1/4 224/1/4
f 213/2/4 214/2/4 225/2/4
f 214/3/4 215/3/4 226/3/4
f 225/2/4 214/2/4 226/2/4
f 215/2/4 216/2/4 227/2/4
f 226/3/4 215/3/4 227/3/4
f 216/3/4 217/3/4 228/3/4
f 227/2/4 216/2/4 228/2/4
f 217/2/4 218/2/4 229/2/4
f 228/3/4 217/3/4 229/3/4
f 218/3/4 219/3/4 230/3/4
f 229/2/4 218/2/4 230/2/4
f 220/2/4 221/2/4 231/2/4
f 230/3/4 219/3/4 231/3/4
f 219/2/4 220/2/4 231/2/4
f 222/3/4 223/3/4 232/3/4
f 231/2/4 221/2/4 232/2/4
f 221/3/4 222/3/4 232/3/4
f 232/3/4 223/3/4 233/3/4
f 234/2/4 235/2/4 243/2/4
f 235/3/4 236/3/4 244/3/4
f 243/2/4 235/2/4 244/2/4
f 241/3/4 242/3/4 245/3/4
f 240/2/4 241/2/4 245/2/4
f 245/3/4 242/3/4 246/3/4
f 246/3/4 242/3/4 247/3/4
f 243/3/4 244/3/4 249/3/4
f 244/3/4 236/3/4 250/3/4
f 249/3/4 244/3/4 250/3/4
f 236/2/4 237/2/4 250/2/4
f 237/3/4 238/3/4 251/3/4
f 250/2/4 237/2/4 251/2/4
f 238/2/4 239/2/4 252/2/4
f 251/3/4 238/3/4 252/3/4
f 239/3/4 240/3/4 253/3/4
f 252/2/4 239/2/4 253/2/4
f 240/2/4 245/2/4 254/2/4
f 253/3/4 240/3/4 254/3/4
f 245/2/4 246/2/4 254/2/4
f 246/3/4 247/3/4 255/3/4
f 254/2/4 246/2/4 255/2/4
f 247/3/4 248/3/4 255/3/4
f 255/3/4 248/3/4 256/3/4
f 261/3/5 258/3/5 257/3/5
f 262/2/5 259/2/5 258/2/5
f 262/3/5 258/3/5 261/3/5
f 263/2/5 259/2/5 262/2/5
f 265/2/5 261/2/5 260/2/5
f 265/2/5 262/2/5 261/2/5
f 265/2/5 263/2/5 262/2/5
f 266/2/5 263/2/5 265/2/5
f 267/3/5 264/3/5 263/3/5
f 267/2/5 263/2/5 266/2/5
f 268/3/5 264/3/5 267/3/5
f 269/3/5 266/3/5 265/3/5
f 270/2/5 267/2/5 266/2/5
f 270/3/5 266/3/5 269/3/5
f 270/2/5 268/2/5 267/2/5
f 271/2/5 268/2/5 270/2/5
f 272/2/5 268/2/5 271/2/5
f 273/2/5 268/2/5 272/2/5
f 274/2/5 271/2/5 270/2/5
f 275/3/5 272/3/5 271/3/5
f 275/2/5 271/2/5 274/2/5
f 276/3/5 272/3/5 275/3/5
f 277/3/6 278/3/6 279/3/6
f 279/3/6 278/3/6 280/3/6
f 281/3/6 282/3/6 283/3/6
f 283/3/6 282/3/6 284/3/6
f 285/3/6 286/3/6 287/3/6
f 287/3/6 286/3/6 288/3/6
f 289/3/6 290/3/6 291/3/6
f 291/3/6 290/3/6 292/3/6
f 293/3/6 294/3/6 295/3/6
f 295/3/6 294/3/6 296/3/6
f 297/3/6 298/3/6 299/3/6
f 299/3/6 298/3/6 300/3/6
f 301/1/6 302/1/6 303/1/6
f 303/1/6 302/1/6 304/1/6
