# MagicaVoxel @ Ephtracy

# group
o 

# material
mtllib gate.mtl
usemtl palette

# normals
vn -1 0 0
vn 1 0 0
vn 0 0 1
vn 0 0 -1
vn 0 -1 0
vn 0 1 0

# texcoords
vt 0.259766 0.5
vt 0.263672 0.5

# verts
v 3.2 0 -0.4
v 3.2 0 -0.6
v 3.2 0.1 -0.4
v 3.2 0.1 -0.6
v 3.3 0.1 -0.4
v 3.3 0.1 -0.6
v 3.3 0.3 -0.4
v 3.3 0.3 -0.6
v 3.3 1.1 -0.4
v 3.3 1.1 -0.6
v 3.3 1.3 -0.4
v 3.3 1.3 -0.6
v 3.3 2.1 -0.4
v 3.3 2.1 -0.6
v 3.3 2.3 -0.4
v 3.3 2.3 -0.6
v 3.3 2.5 -0.4
v 3.3 2.5 -0.6
v 3.4 2.5 -0.4
v 3.4 2.5 -0.6
v 3.4 2.7 -0.4
v 3.4 2.7 -0.6
v 3.7 0.1 -0.4
v 3.7 0.1 -0.6
v 3.7 0.3 -0.4
v 3.7 0.3 -0.6
v 3.7 1.1 -0.4
v 3.7 1.1 -0.6
v 3.7 1.3 -0.4
v 3.7 1.3 -0.6
v 3.7 2.1 -0.4
v 3.7 2.1 -0.6
v 3.7 2.3 -0.4
v 3.7 2.3 -0.6
v 3.7 2.9 -0.4
v 3.7 2.9 -0.6
v 3.8 2.9 -0.4
v 3.8 2.9 -0.6
v 3.8 3 -0.4
v 3.8 3 -0.6
v 4.1 0.1 -0.4
v 4.1 0.1 -0.6
v 4.1 0.3 -0.4
v 4.1 0.3 -0.6
v 4.1 1.1 -0.4
v 4.1 1.1 -0.6
v 4.1 1.3 -0.4
v 4.1 1.3 -0.6
v 4.1 2.1 -0.4
v 4.1 2.1 -0.6
v 4.1 2.3 -0.4
v 4.1 2.3 -0.6
v 4.1 3.1 -0.4
v 4.1 3.1 -0.6
v 4.5 0.1 -0.4
v 4.5 0.1 -0.6
v 4.5 0.3 -0.4
v 4.5 0.3 -0.6
v 4.5 1.1 -0.4
v 4.5 1.1 -0.6
v 4.5 1.3 -0.4
v 4.5 1.3 -0.6
v 4.5 2.1 -0.4
v 4.5 2.1 -0.6
v 4.5 2.3 -0.4
v 4.5 2.3 -0.6
v 4.5 3.2 -0.4
v 4.5 3.2 -0.6
v 4.9 0.1 -0.4
v 4.9 0.1 -0.6
v 4.9 0.3 -0.4
v 4.9 0.3 -0.6
v 4.9 1.1 -0.4
v 4.9 1.1 -0.6
v 4.9 1.3 -0.4
v 4.9 1.3 -0.6
v 4.9 2.1 -0.4
v 4.9 2.1 -0.6
v 4.9 2.3 -0.4
v 4.9 2.3 -0.6
v 4.9 3.3 -0.4
v 4.9 3.3 -0.6
v 5.3 0.1 -0.4
v 5.3 0.1 -0.6
v 5.3 0.3 -0.4
v 5.3 0.3 -0.6
v 5.3 1.1 -0.4
v 5.3 1.1 -0.6
v 5.3 1.3 -0.4
v 5.3 1.3 -0.6
v 5.3 2.1 -0.4
v 5.3 2.1 -0.6
v 5.3 2.3 -0.4
v 5.3 2.3 -0.6
v 5.3 3.2 -0.4
v 5.3 3.2 -0.6
v 5.7 0.1 -0.4
v 5.7 0.1 -0.6
v 5.7 0.3 -0.4
v 5.7 0.3 -0.6
v 5.7 1.1 -0.4
v 5.7 1.1 -0.6
v 5.7 1.3 -0.4
v 5.7 1.3 -0.6
v 5.7 2.1 -0.4
v 5.7 2.1 -0.6
v 5.7 2.3 -0.4
v 5.7 2.3 -0.6
v 5.7 3.1 -0.4
v 5.7 3.1 -0.6
v 6.1 0.1 -0.4
v 6.1 0.1 -0.6
v 6.1 0.3 -0.4
v 6.1 0.3 -0.6
v 6.1 1.1 -0.4
v 6.1 1.1 -0.6
v 6.1 1.3 -0.4
v 6.1 1.3 -0.6
v 6.1 2.1 -0.4
v 6.1 2.1 -0.6
v 6.1 2.3 -0.4
v 6.1 2.3 -0.6
v 6.1 3 -0.4
v 6.1 3 -0.6
v 6.5 0.1 -0.4
v 6.5 0.1 -0.6
v 6.5 0.3 -0.4
v 6.5 0.3 -0.6
v 6.5 1.1 -0.4
v 6.5 1.1 -0.6
v 6.5 1.3 -0.4
v 6.5 1.3 -0.6
v 6.5 2.1 -0.4
v 6.5 2.1 -0.6
v 6.5 2.3 -0.4
v 6.5 2.3 -0.6
v 6.5 2.7 -0.4
v 6.5 2.7 -0.6
v 3.5 0.1 -0.4
v 3.5 0.1 -0.6
v 3.5 0.3 -0.4
v 3.5 0.3 -0.6
v 3.5 1.1 -0.4
v 3.5 1.1 -0.6
v 3.5 1.3 -0.4
v 3.5 1.3 -0.6
v 3.5 2.1 -0.4
v 3.5 2.1 -0.6
v 3.5 2.3 -0.4
v 3.5 2.3 -0.6
v 3.5 2.7 -0.4
v 3.5 2.7 -0.6
v 3.9 0.1 -0.4
v 3.9 0.1 -0.6
v 3.9 0.3 -0.4
v 3.9 0.3 -0.6
v 3.9 1.1 -0.4
v 3.9 1.1 -0.6
v 3.9 1.3 -0.4
v 3.9 1.3 -0.6
v 3.9 2.1 -0.4
v 3.9 2.1 -0.6
v 3.9 2.3 -0.4
v 3.9 2.3 -0.6
v 3.9 3 -0.4
v 3.9 3 -0.6
v 4.3 0.1 -0.4
v 4.3 0.1 -0.6
v 4.3 0.3 -0.4
v 4.3 0.3 -0.6
v 4.3 1.1 -0.4
v 4.3 1.1 -0.6
v 4.3 1.3 -0.4
v 4.3 1.3 -0.6
v 4.3 2.1 -0.4
v 4.3 2.1 -0.6
v 4.3 2.3 -0.4
v 4.3 2.3 -0.6
v 4.3 3.1 -0.4
v 4.3 3.1 -0.6
v 4.7 0.1 -0.4
v 4.7 0.1 -0.6
v 4.7 0.3 -0.4
v 4.7 0.3 -0.6
v 4.7 1.1 -0.4
v 4.7 1.1 -0.6
v 4.7 1.3 -0.4
v 4.7 1.3 -0.6
v 4.7 2.1 -0.4
v 4.7 2.1 -0.6
v 4.7 2.3 -0.4
v 4.7 2.3 -0.6
v 4.7 3.2 -0.4
v 4.7 3.2 -0.6
v 5.1 0.1 -0.4
v 5.1 0.1 -0.6
v 5.1 0.3 -0.4
v 5.1 0.3 -0.6
v 5.1 1.1 -0.4
v 5.1 1.1 -0.6
v 5.1 1.3 -0.4
v 5.1 1.3 -0.6
v 5.1 2.1 -0.4
v 5.1 2.1 -0.6
v 5.1 2.3 -0.4
v 5.1 2.3 -0.6
v 5.1 3.3 -0.4
v 5.1 3.3 -0.6
v 5.5 0.1 -0.4
v 5.5 0.1 -0.6
v 5.5 0.3 -0.4
v 5.5 0.3 -0.6
v 5.5 1.1 -0.4
v 5.5 1.1 -0.6
v 5.5 1.3 -0.4
v 5.5 1.3 -0.6
v 5.5 2.1 -0.4
v 5.5 2.1 -0.6
v 5.5 2.3 -0.4
v 5.5 2.3 -0.6
v 5.5 3.2 -0.4
v 5.5 3.2 -0.6
v 5.9 0.1 -0.4
v 5.9 0.1 -0.6
v 5.9 0.3 -0.4
v 5.9 0.3 -0.6
v 5.9 1.1 -0.4
v 5.9 1.1 -0.6
v 5.9 1.3 -0.4
v 5.9 1.3 -0.6
v 5.9 2.1 -0.4
v 5.9 2.1 -0.6
v 5.9 2.3 -0.4
v 5.9 2.3 -0.6
v 5.9 3.1 -0.4
v 5.9 3.1 -0.6
v 6.2 2.9 -0.4
v 6.2 2.9 -0.6
v 6.2 3 -0.4
v 6.2 3 -0.6
v 6.3 0.1 -0.4
v 6.3 0.1 -0.6
v 6.3 0.3 -0.4
v 6.3 0.3 -0.6
v 6.3 1.1 -0.4
v 6.3 1.1 -0.6
v 6.3 1.3 -0.4
v 6.3 1.3 -0.6
v 6.3 2.1 -0.4
v 6.3 2.1 -0.6
v 6.3 2.3 -0.4
v 6.3 2.3 -0.6
v 6.3 2.9 -0.4
v 6.3 2.9 -0.6
v 6.6 2.5 -0.4
v 6.6 2.5 -0.6
v 6.6 2.7 -0.4
v 6.6 2.7 -0.6
v 6.7 0.1 -0.4
v 6.7 0.1 -0.6
v 6.7 0.3 -0.4
v 6.7 0.3 -0.6
v 6.7 1.1 -0.4
v 6.7 1.1 -0.6
v 6.7 1.3 -0.4
v 6.7 1.3 -0.6
v 6.7 2.1 -0.4
v 6.7 2.1 -0.6
v 6.7 2.3 -0.4
v 6.7 2.3 -0.6
v 6.7 2.5 -0.4
v 6.7 2.5 -0.6
v 6.8 0 -0.4
v 6.8 0 -0.6
v 6.8 0.1 -0.4
v 6.8 0.1 -0.6
v 3.2 0 -0.4
v 3.2 0.1 -0.4
v 3.3 0.1 -0.4
v 3.3 0.3 -0.4
v 3.3 1.1 -0.4
v 3.3 1.3 -0.4
v 3.3 2.1 -0.4
v 3.3 2.3 -0.4
v 3.3 2.5 -0.4
v 3.4 2.5 -0.4
v 3.4 2.7 -0.4
v 3.5 0.1 -0.4
v 3.5 0.3 -0.4
v 3.5 1.1 -0.4
v 3.5 1.3 -0.4
v 3.5 2.1 -0.4
v 3.5 2.3 -0.4
v 3.5 2.7 -0.4
v 3.7 0.1 -0.4
v 3.7 0.3 -0.4
v 3.7 1.1 -0.4
v 3.7 1.3 -0.4
v 3.7 2.1 -0.4
v 3.7 2.3 -0.4
v 3.7 2.9 -0.4
v 3.8 2.9 -0.4
v 3.8 3 -0.4
v 3.9 0.1 -0.4
v 3.9 0.3 -0.4
v 3.9 1.1 -0.4
v 3.9 1.3 -0.4
v 3.9 2.1 -0.4
v 3.9 2.3 -0.4
v 3.9 3 -0.4
v 4.1 0.1 -0.4
v 4.1 0.3 -0.4
v 4.1 1.1 -0.4
v 4.1 1.3 -0.4
v 4.1 2.1 -0.4
v 4.1 2.3 -0.4
v 4.1 3.1 -0.4
v 4.3 0.1 -0.4
v 4.3 0.3 -0.4
v 4.3 1.1 -0.4
v 4.3 1.3 -0.4
v 4.3 2.1 -0.4
v 4.3 2.3 -0.4
v 4.3 3.1 -0.4
v 4.5 0.1 -0.4
v 4.5 0.3 -0.4
v 4.5 1.1 -0.4
v 4.5 1.3 -0.4
v 4.5 2.1 -0.4
v 4.5 2.3 -0.4
v 4.5 3.2 -0.4
v 4.7 0.1 -0.4
v 4.7 0.3 -0.4
v 4.7 1.1 -0.4
v 4.7 1.3 -0.4
v 4.7 2.1 -0.4
v 4.7 2.3 -0.4
v 4.7 3.2 -0.4
v 4.9 0.1 -0.4
v 4.9 0.3 -0.4
v 4.9 1.1 -0.4
v 4.9 1.3 -0.4
v 4.9 2.1 -0.4
v 4.9 2.3 -0.4
v 4.9 3.3 -0.4
v 5.1 0.1 -0.4
v 5.1 0.3 -0.4
v 5.1 1.1 -0.4
v 5.1 1.3 -0.4
v 5.1 2.1 -0.4
v 5.1 2.3 -0.4
v 5.1 3.3 -0.4
v 5.3 0.1 -0.4
v 5.3 0.3 -0.4
v 5.3 1.1 -0.4
v 5.3 1.3 -0.4
v 5.3 2.1 -0.4
v 5.3 2.3 -0.4
v 5.3 3.2 -0.4
v 5.5 0.1 -0.4
v 5.5 0.3 -0.4
v 5.5 1.1 -0.4
v 5.5 1.3 -0.4
v 5.5 2.1 -0.4
v 5.5 2.3 -0.4
v 5.5 3.2 -0.4
v 5.7 0.1 -0.4
v 5.7 0.3 -0.4
v 5.7 1.1 -0.4
v 5.7 1.3 -0.4
v 5.7 2.1 -0.4
v 5.7 2.3 -0.4
v 5.7 3.1 -0.4
v 5.9 0.1 -0.4
v 5.9 0.3 -0.4
v 5.9 1.1 -0.4
v 5.9 1.3 -0.4
v 5.9 2.1 -0.4
v 5.9 2.3 -0.4
v 5.9 3.1 -0.4
v 6.1 0.1 -0.4
v 6.1 0.3 -0.4
v 6.1 1.1 -0.4
v 6.1 1.3 -0.4
v 6.1 2.1 -0.4
v 6.1 2.3 -0.4
v 6.1 3 -0.4
v 6.2 2.9 -0.4
v 6.2 3 -0.4
v 6.3 0.1 -0.4
v 6.3 0.3 -0.4
v 6.3 1.1 -0.4
v 6.3 1.3 -0.4
v 6.3 2.1 -0.4
v 6.3 2.3 -0.4
v 6.3 2.9 -0.4
v 6.5 0.1 -0.4
v 6.5 0.3 -0.4
v 6.5 1.1 -0.4
v 6.5 1.3 -0.4
v 6.5 2.1 -0.4
v 6.5 2.3 -0.4
v 6.5 2.7 -0.4
v 6.6 2.5 -0.4
v 6.6 2.7 -0.4
v 6.7 0.1 -0.4
v 6.7 0.3 -0.4
v 6.7 1.1 -0.4
v 6.7 1.3 -0.4
v 6.7 2.1 -0.4
v 6.7 2.3 -0.4
v 6.7 2.5 -0.4
v 6.8 0 -0.4
v 6.8 0.1 -0.4
v 3.2 0 -0.6
v 3.2 0.1 -0.6
v 3.3 0.1 -0.6
v 3.3 0.3 -0.6
v 3.3 1.1 -0.6
v 3.3 1.3 -0.6
v 3.3 2.1 -0.6
v 3.3 2.3 -0.6
v 3.3 2.5 -0.6
v 3.4 2.5 -0.6
v 3.4 2.7 -0.6
v 3.5 0.1 -0.6
v 3.5 0.3 -0.6
v 3.5 1.1 -0.6
v 3.5 1.3 -0.6
v 3.5 2.1 -0.6
v 3.5 2.3 -0.6
v 3.5 2.7 -0.6
v 3.7 0.1 -0.6
v 3.7 0.3 -0.6
v 3.7 1.1 -0.6
v 3.7 1.3 -0.6
v 3.7 2.1 -0.6
v 3.7 2.3 -0.6
v 3.7 2.9 -0.6
v 3.8 2.9 -0.6
v 3.8 3 -0.6
v 3.9 0.1 -0.6
v 3.9 0.3 -0.6
v 3.9 1.1 -0.6
v 3.9 1.3 -0.6
v 3.9 2.1 -0.6
v 3.9 2.3 -0.6
v 3.9 3 -0.6
v 4.1 0.1 -0.6
v 4.1 0.3 -0.6
v 4.1 1.1 -0.6
v 4.1 1.3 -0.6
v 4.1 2.1 -0.6
v 4.1 2.3 -0.6
v 4.1 3.1 -0.6
v 4.3 0.1 -0.6
v 4.3 0.3 -0.6
v 4.3 1.1 -0.6
v 4.3 1.3 -0.6
v 4.3 2.1 -0.6
v 4.3 2.3 -0.6
v 4.3 3.1 -0.6
v 4.5 0.1 -0.6
v 4.5 0.3 -0.6
v 4.5 1.1 -0.6
v 4.5 1.3 -0.6
v 4.5 2.1 -0.6
v 4.5 2.3 -0.6
v 4.5 3.2 -0.6
v 4.7 0.1 -0.6
v 4.7 0.3 -0.6
v 4.7 1.1 -0.6
v 4.7 1.3 -0.6
v 4.7 2.1 -0.6
v 4.7 2.3 -0.6
v 4.7 3.2 -0.6
v 4.9 0.1 -0.6
v 4.9 0.3 -0.6
v 4.9 1.1 -0.6
v 4.9 1.3 -0.6
v 4.9 2.1 -0.6
v 4.9 2.3 -0.6
v 4.9 3.3 -0.6
v 5.1 0.1 -0.6
v 5.1 0.3 -0.6
v 5.1 1.1 -0.6
v 5.1 1.3 -0.6
v 5.1 2.1 -0.6
v 5.1 2.3 -0.6
v 5.1 3.3 -0.6
v 5.3 0.1 -0.6
v 5.3 0.3 -0.6
v 5.3 1.1 -0.6
v 5.3 1.3 -0.6
v 5.3 2.1 -0.6
v 5.3 2.3 -0.6
v 5.3 3.2 -0.6
v 5.5 0.1 -0.6
v 5.5 0.3 -0.6
v 5.5 1.1 -0.6
v 5.5 1.3 -0.6
v 5.5 2.1 -0.6
v 5.5 2.3 -0.6
v 5.5 3.2 -0.6
v 5.7 0.1 -0.6
v 5.7 0.3 -0.6
v 5.7 1.1 -0.6
v 5.7 1.3 -0.6
v 5.7 2.1 -0.6
v 5.7 2.3 -0.6
v 5.7 3.1 -0.6
v 5.9 0.1 -0.6
v 5.9 0.3 -0.6
v 5.9 1.1 -0.6
v 5.9 1.3 -0.6
v 5.9 2.1 -0.6
v 5.9 2.3 -0.6
v 5.9 3.1 -0.6
v 6.1 0.1 -0.6
v 6.1 0.3 -0.6
v 6.1 1.1 -0.6
v 6.1 1.3 -0.6
v 6.1 2.1 -0.6
v 6.1 2.3 -0.6
v 6.1 3 -0.6
v 6.2 2.9 -0.6
v 6.2 3 -0.6
v 6.3 0.1 -0.6
v 6.3 0.3 -0.6
v 6.3 1.1 -0.6
v 6.3 1.3 -0.6
v 6.3 2.1 -0.6
v 6.3 2.3 -0.6
v 6.3 2.9 -0.6
v 6.5 0.1 -0.6
v 6.5 0.3 -0.6
v 6.5 1.1 -0.6
v 6.5 1.3 -0.6
v 6.5 2.1 -0.6
v 6.5 2.3 -0.6
v 6.5 2.7 -0.6
v 6.6 2.5 -0.6
v 6.6 2.7 -0.6
v 6.7 0.1 -0.6
v 6.7 0.3 -0.6
v 6.7 1.1 -0.6
v 6.7 1.3 -0.6
v 6.7 2.1 -0.6
v 6.7 2.3 -0.6
v 6.7 2.5 -0.6
v 6.8 0 -0.6
v 6.8 0.1 -0.6
v 3.2 0 -0.4
v 6.8 0 -0.4
v 3.2 0 -0.6
v 6.8 0 -0.6
v 3.2 0.1 -0.4
v 3.3 0.1 -0.4
v 3.5 0.1 -0.4
v 3.7 0.1 -0.4
v 3.9 0.1 -0.4
v 4.1 0.1 -0.4
v 4.3 0.1 -0.4
v 4.5 0.1 -0.4
v 4.7 0.1 -0.4
v 4.9 0.1 -0.4
v 5.1 0.1 -0.4
v 5.3 0.1 -0.4
v 5.5 0.1 -0.4
v 5.7 0.1 -0.4
v 5.9 0.1 -0.4
v 6.1 0.1 -0.4
v 6.3 0.1 -0.4
v 6.5 0.1 -0.4
v 6.7 0.1 -0.4
v 6.8 0.1 -0.4
v 3.2 0.1 -0.6
v 3.3 0.1 -0.6
v 3.5 0.1 -0.6
v 3.7 0.1 -0.6
v 3.9 0.1 -0.6
v 4.1 0.1 -0.6
v 4.3 0.1 -0.6
v 4.5 0.1 -0.6
v 4.7 0.1 -0.6
v 4.9 0.1 -0.6
v 5.1 0.1 -0.6
v 5.3 0.1 -0.6
v 5.5 0.1 -0.6
v 5.7 0.1 -0.6
v 5.9 0.1 -0.6
v 6.1 0.1 -0.6
v 6.3 0.1 -0.6
v 6.5 0.1 -0.6
v 6.7 0.1 -0.6
v 6.8 0.1 -0.6
v 3.3 2.5 -0.4
v 3.4 2.5 -0.4
v 6.6 2.5 -0.4
v 6.7 2.5 -0.4
v 3.3 2.5 -0.6
v 3.4 2.5 -0.6
v 6.6 2.5 -0.6
v 6.7 2.5 -0.6
v 3.4 2.7 -0.4
v 3.5 2.7 -0.4
v 6.5 2.7 -0.4
v 6.6 2.7 -0.4
v 3.4 2.7 -0.6
v 3.5 2.7 -0.6
v 6.5 2.7 -0.6
v 6.6 2.7 -0.6
v 3.7 2.9 -0.4
v 3.8 2.9 -0.4
v 6.2 2.9 -0.4
v 6.3 2.9 -0.4
v 3.7 2.9 -0.6
v 3.8 2.9 -0.6
v 6.2 2.9 -0.6
v 6.3 2.9 -0.6
v 3.8 3 -0.4
v 3.9 3 -0.4
v 6.1 3 -0.4
v 6.2 3 -0.4
v 3.8 3 -0.6
v 3.9 3 -0.6
v 6.1 3 -0.6
v 6.2 3 -0.6
v 4.1 3.1 -0.4
v 4.3 3.1 -0.4
v 5.7 3.1 -0.4
v 5.9 3.1 -0.4
v 4.1 3.1 -0.6
v 4.3 3.1 -0.6
v 5.7 3.1 -0.6
v 5.9 3.1 -0.6
v 4.5 3.2 -0.4
v 4.7 3.2 -0.4
v 5.3 3.2 -0.4
v 5.5 3.2 -0.4
v 4.5 3.2 -0.6
v 4.7 3.2 -0.6
v 5.3 3.2 -0.6
v 5.5 3.2 -0.6
v 4.9 3.3 -0.4
v 5.1 3.3 -0.4
v 4.9 3.3 -0.6
v 5.1 3.3 -0.6

# faces
f 3/1/1 2/1/1 1/1/1
f 4/1/1 2/1/1 3/1/1
f 7/2/1 6/2/1 5/2/1
f 8/2/1 6/2/1 7/2/1
f 9/1/1 8/1/1 7/1/1
f 10/1/1 8/1/1 9/1/1
f 11/2/1 10/2/1 9/2/1
f 12/2/1 10/2/1 11/2/1
f 13/1/1 12/1/1 11/1/1
f 14/1/1 12/1/1 13/1/1
f 15/2/1 14/2/1 13/2/1
f 16/2/1 14/2/1 15/2/1
f 17/1/1 16/1/1 15/1/1
f 18/1/1 16/1/1 17/1/1
f 21/1/1 20/1/1 19/1/1
f 22/1/1 20/1/1 21/1/1
f 25/2/1 24/2/1 23/2/1
f 26/2/1 24/2/1 25/2/1
f 27/1/1 26/1/1 25/1/1
f 28/1/1 26/1/1 27/1/1
f 29/2/1 28/2/1 27/2/1
f 30/2/1 28/2/1 29/2/1
f 31/1/1 30/1/1 29/1/1
f 32/1/1 30/1/1 31/1/1
f 33/2/1 32/2/1 31/2/1
f 34/2/1 32/2/1 33/2/1
f 35/1/1 34/1/1 33/1/1
f 36/1/1 34/1/1 35/1/1
f 39/1/1 38/1/1 37/1/1
f 40/1/1 38/1/1 39/1/1
f 43/2/1 42/2/1 41/2/1
f 44/2/1 42/2/1 43/2/1
f 45/1/1 44/1/1 43/1/1
f 46/1/1 44/1/1 45/1/1
f 47/2/1 46/2/1 45/2/1
f 48/2/1 46/2/1 47/2/1
f 49/1/1 48/1/1 47/1/1
f 50/1/1 48/1/1 49/1/1
f 51/2/1 50/2/1 49/2/1
f 52/2/1 50/2/1 51/2/1
f 53/1/1 52/1/1 51/1/1
f 54/1/1 52/1/1 53/1/1
f 57/2/1 56/2/1 55/2/1
f 58/2/1 56/2/1 57/2/1
f 59/1/1 58/1/1 57/1/1
f 60/1/1 58/1/1 59/1/1
f 61/2/1 60/2/1 59/2/1
f 62/2/1 60/2/1 61/2/1
f 63/1/1 62/1/1 61/1/1
f 64/1/1 62/1/1 63/1/1
f 65/2/1 64/2/1 63/2/1
f 66/2/1 64/2/1 65/2/1
f 67/1/1 66/1/1 65/1/1
f 68/1/1 66/1/1 67/1/1
f 71/2/1 70/2/1 69/2/1
f 72/2/1 70/2/1 71/2/1
f 73/1/1 72/1/1 71/1/1
f 74/1/1 72/1/1 73/1/1
f 75/2/1 74/2/1 73/2/1
f 76/2/1 74/2/1 75/2/1
f 77/1/1 76/1/1 75/1/1
f 78/1/1 76/1/1 77/1/1
f 79/2/1 78/2/1 77/2/1
f 80/2/1 78/2/1 79/2/1
f 81/1/1 80/1/1 79/1/1
f 82/1/1 80/1/1 81/1/1
f 85/2/1 84/2/1 83/2/1
f 86/2/1 84/2/1 85/2/1
f 87/1/1 86/1/1 85/1/1
f 88/1/1 86/1/1 87/1/1
f 89/2/1 88/2/1 87/2/1
f 90/2/1 88/2/1 89/2/1
f 91/1/1 90/1/1 89/1/1
f 92/1/1 90/1/1 91/1/1
f 93/2/1 92/2/1 91/2/1
f 94/2/1 92/2/1 93/2/1
f 95/1/1 94/1/1 93/1/1
f 96/1/1 94/1/1 95/1/1
f 99/2/1 98/2/1 97/2/1
f 100/2/1 98/2/1 99/2/1
f 101/1/1 100/1/1 99/1/1
f 102/1/1 100/1/1 101/1/1
f 103/2/1 102/2/1 101/2/1
f 104/2/1 102/2/1 103/2/1
f 105/1/1 104/1/1 103/1/1
f 106/1/1 104/1/1 105/1/1
f 107/2/1 106/2/1 105/2/1
f 108/2/1 106/2/1 107/2/1
f 109/1/1 108/1/1 107/1/1
f 110/1/1 108/1/1 109/1/1
f 113/2/1 112/2/1 111/2/1
f 114/2/1 112/2/1 113/2/1
f 115/1/1 114/1/1 113/1/1
f 116/1/1 114/1/1 115/1/1
f 117/2/1 116/2/1 115/2/1
f 118/2/1 116/2/1 117/2/1
f 119/1/1 118/1/1 117/1/1
f 120/1/1 118/1/1 119/1/1
f 121/2/1 120/2/1 119/2/1
f 122/2/1 120/2/1 121/2/1
f 123/1/1 122/1/1 121/1/1
f 124/1/1 122/1/1 123/1/1
f 127/2/1 126/2/1 125/2/1
f 128/2/1 126/2/1 127/2/1
f 129/1/1 128/1/1 127/1/1
f 130/1/1 128/1/1 129/1/1
f 131/2/1 130/2/1 129/2/1
f 132/2/1 130/2/1 131/2/1
f 133/1/1 132/1/1 131/1/1
f 134/1/1 132/1/1 133/1/1
f 135/2/1 134/2/1 133/2/1
f 136/2/1 134/2/1 135/2/1
f 137/1/1 136/1/1 135/1/1
f 138/1/1 136/1/1 137/1/1
f 139/2/2 140/2/2 141/2/2
f 141/2/2 140/2/2 142/2/2
f 141/1/2 142/1/2 143/1/2
f 143/1/2 142/1/2 144/1/2
f 143/2/2 144/2/2 145/2/2
f 145/2/2 144/2/2 146/2/2
f 145/1/2 146/1/2 147/1/2
f 147/1/2 146/1/2 148/1/2
f 147/2/2 148/2/2 149/2/2
f 149/2/2 148/2/2 150/2/2
f 149/1/2 150/1/2 151/1/2
f 151/1/2 150/1/2 152/1/2
f 153/2/2 154/2/2 155/2/2
f 155/2/2 154/2/2 156/2/2
f 155/1/2 156/1/2 157/1/2
f 157/1/2 156/1/2 158/1/2
f 157/2/2 158/2/2 159/2/2
f 159/2/2 158/2/2 160/2/2
f 159/1/2 160/1/2 161/1/2
f 161/1/2 160/1/2 162/1/2
f 161/2/2 162/2/2 163/2/2
f 163/2/2 162/2/2 164/2/2
f 163/1/2 164/1/2 165/1/2
f 165/1/2 164/1/2 166/1/2
f 167/2/2 168/2/2 169/2/2
f 169/2/2 168/2/2 170/2/2
f 169/1/2 170/1/2 171/1/2
f 171/1/2 170/1/2 172/1/2
f 171/2/2 172/2/2 173/2/2
f 173/2/2 172/2/2 174/2/2
f 173/1/2 174/1/2 175/1/2
f 175/1/2 174/1/2 176/1/2
f 175/2/2 176/2/2 177/2/2
f 177/2/2 176/2/2 178/2/2
f 177/1/2 178/1/2 179/1/2
f 179/1/2 178/1/2 180/1/2
f 181/2/2 182/2/2 183/2/2
f 183/2/2 182/2/2 184/2/2
f 183/1/2 184/1/2 185/1/2
f 185/1/2 184/1/2 186/1/2
f 185/2/2 186/2/2 187/2/2
f 187/2/2 186/2/2 188/2/2
f 187/1/2 188/1/2 189/1/2
f 189/1/2 188/1/2 190/1/2
f 189/2/2 190/2/2 191/2/2
f 191/2/2 190/2/2 192/2/2
f 191/1/2 192/1/2 193/1/2
f 193/1/2 192/1/2 194/1/2
f 195/2/2 196/2/2 197/2/2
f 197/2/2 196/2/2 198/2/2
f 197/1/2 198/1/2 199/1/2
f 199/1/2 198/1/2 200/1/2
f 199/2/2 200/2/2 201/2/2
f 201/2/2 200/2/2 202/2/2
f 201/1/2 202/1/2 203/1/2
f 203/1/2 202/1/2 204/1/2
f 203/2/2 204/2/2 205/2/2
f 205/2/2 204/2/2 206/2/2
f 205/1/2 206/1/2 207/1/2
f 207/1/2 206/1/2 208/1/2
f 209/2/2 210/2/2 211/2/2
f 211/2/2 210/2/2 212/2/2
f 211/1/2 212/1/2 213/1/2
f 213/1/2 212/1/2 214/1/2
f 213/2/2 214/2/2 215/2/2
f 215/2/2 214/2/2 216/2/2
f 215/1/2 216/1/2 217/1/2
f 217/1/2 216/1/2 218/1/2
f 217/2/2 218/2/2 219/2/2
f 219/2/2 218/2/2 220/2/2
f 219/1/2 220/1/2 221/1/2
f 221/1/2 220/1/2 222/1/2
f 223/2/2 224/2/2 225/2/2
f 225/2/2 224/2/2 226/2/2
f 225/1/2 226/1/2 227/1/2
f 227/1/2 226/1/2 228/1/2
f 227/2/2 228/2/2 229/2/2
f 229/2/2 228/2/2 230/2/2
f 229/1/2 230/1/2 231/1/2
f 231/1/2 230/1/2 232/1/2
f 231/2/2 232/2/2 233/2/2
f 233/2/2 232/2/2 234/2/2
f 233/1/2 234/1/2 235/1/2
f 235/1/2 234/1/2 236/1/2
f 237/1/2 238/1/2 239/1/2
f 239/1/2 238/1/2 240/1/2
f 241/2/2 242/2/2 243/2/2
f 243/2/2 242/2/2 244/2/2
f 243/1/2 244/1/2 245/1/2
f 245/1/2 244/1/2 246/1/2
f 245/2/2 246/2/2 247/2/2
f 247/2/2 246/2/2 248/2/2
f 247/1/2 248/1/2 249/1/2
f 249/1/2 248/1/2 250/1/2
f 249/2/2 250/2/2 251/2/2
f 251/2/2 250/2/2 252/2/2
f 251/1/2 252/1/2 253/1/2
f 253/1/2 252/1/2 254/1/2
f 255/1/2 256/1/2 257/1/2
f 257/1/2 256/1/2 258/1/2
f 259/2/2 260/2/2 261/2/2
f 261/2/2 260/2/2 262/2/2
f 261/1/2 262/1/2 263/1/2
f 263/1/2 262/1/2 264/1/2
f 263/2/2 264/2/2 265/2/2
f 265/2/2 264/2/2 266/2/2
f 265/1/2 266/1/2 267/1/2
f 267/1/2 266/1/2 268/1/2
f 267/2/2 268/2/2 269/2/2
f 269/2/2 268/2/2 270/2/2
f 269/1/2 270/1/2 271/1/2
f 271/1/2 270/1/2 272/1/2
f 273/1/2 274/1/2 275/1/2
f 275/1/2 274/1/2 276/1/2
f 279/1/3 278/1/3 277/1/3
f 286/1/3 285/1/3 284/1/3
f 288/1/3 279/1/3 277/1/3
f 288/2/3 280/2/3 279/2/3
f 289/1/3 281/1/3 280/1/3
f 289/2/3 280/2/3 288/2/3
f 290/2/3 282/2/3 281/2/3
f 290/1/3 281/1/3 289/1/3
f 291/1/3 283/1/3 282/1/3
f 291/2/3 282/2/3 290/2/3
f 292/2/3 284/2/3 283/2/3
f 292/1/3 283/1/3 291/1/3
f 293/1/3 287/1/3 286/1/3
f 293/2/3 284/2/3 292/2/3
f 293/1/3 286/1/3 284/1/3
f 294/1/3 287/1/3 293/1/3
f 295/1/3 288/1/3 277/1/3
f 302/1/3 301/1/3 300/1/3
f 304/1/3 295/1/3 277/1/3
f 304/2/3 296/2/3 295/2/3
f 305/1/3 297/1/3 296/1/3
f 305/2/3 296/2/3 304/2/3
f 306/2/3 298/2/3 297/2/3
f 306/1/3 297/1/3 305/1/3
f 307/1/3 299/1/3 298/1/3
f 307/2/3 298/2/3 306/2/3
f 308/2/3 300/2/3 299/2/3
f 308/1/3 299/1/3 307/1/3
f 309/1/3 303/1/3 302/1/3
f 309/2/3 300/2/3 308/2/3
f 309/1/3 302/1/3 300/1/3
f 310/1/3 303/1/3 309/1/3
f 311/1/3 304/1/3 277/1/3
f 318/1/3 311/1/3 277/1/3
f 318/2/3 312/2/3 311/2/3
f 319/1/3 313/1/3 312/1/3
f 319/2/3 312/2/3 318/2/3
f 320/2/3 314/2/3 313/2/3
f 320/1/3 313/1/3 319/1/3
f 321/1/3 315/1/3 314/1/3
f 321/2/3 314/2/3 320/2/3
f 322/2/3 316/2/3 315/2/3
f 322/1/3 315/1/3 321/1/3
f 323/1/3 317/1/3 316/1/3
f 323/2/3 316/2/3 322/2/3
f 324/1/3 317/1/3 323/1/3
f 325/1/3 318/1/3 277/1/3
f 332/1/3 325/1/3 277/1/3
f 332/2/3 326/2/3 325/2/3
f 333/1/3 327/1/3 326/1/3
f 333/2/3 326/2/3 332/2/3
f 334/2/3 328/2/3 327/2/3
f 334/1/3 327/1/3 333/1/3
f 335/1/3 329/1/3 328/1/3
f 335/2/3 328/2/3 334/2/3
f 336/2/3 330/2/3 329/2/3
f 336/1/3 329/1/3 335/1/3
f 337/1/3 331/1/3 330/1/3
f 337/2/3 330/2/3 336/2/3
f 338/1/3 331/1/3 337/1/3
f 339/1/3 332/1/3 277/1/3
f 346/1/3 339/1/3 277/1/3
f 346/2/3 340/2/3 339/2/3
f 347/1/3 341/1/3 340/1/3
f 347/2/3 340/2/3 346/2/3
f 348/2/3 342/2/3 341/2/3
f 348/1/3 341/1/3 347/1/3
f 349/1/3 343/1/3 342/1/3
f 349/2/3 342/2/3 348/2/3
f 350/2/3 344/2/3 343/2/3
f 350/1/3 343/1/3 349/1/3
f 351/1/3 345/1/3 344/1/3
f 351/2/3 344/2/3 350/2/3
f 352/1/3 345/1/3 351/1/3
f 353/1/3 346/1/3 277/1/3
f 360/1/3 353/1/3 277/1/3
f 360/2/3 354/2/3 353/2/3
f 361/1/3 355/1/3 354/1/3
f 361/2/3 354/2/3 360/2/3
f 362/2/3 356/2/3 355/2/3
f 362/1/3 355/1/3 361/1/3
f 363/1/3 357/1/3 356/1/3
f 363/2/3 356/2/3 362/2/3
f 364/2/3 358/2/3 357/2/3
f 364/1/3 357/1/3 363/1/3
f 365/1/3 359/1/3 358/1/3
f 365/2/3 358/2/3 364/2/3
f 366/1/3 359/1/3 365/1/3
f 367/1/3 360/1/3 277/1/3
f 374/1/3 367/1/3 277/1/3
f 374/2/3 368/2/3 367/2/3
f 375/1/3 369/1/3 368/1/3
f 375/2/3 368/2/3 374/2/3
f 376/2/3 370/2/3 369/2/3
f 376/1/3 369/1/3 375/1/3
f 377/1/3 371/1/3 370/1/3
f 377/2/3 370/2/3 376/2/3
f 378/2/3 372/2/3 371/2/3
f 378/1/3 371/1/3 377/1/3
f 379/1/3 373/1/3 372/1/3
f 379/2/3 372/2/3 378/2/3
f 380/1/3 373/1/3 379/1/3
f 381/1/3 374/1/3 277/1/3
f 388/1/3 387/1/3 386/1/3
f 389/1/3 387/1/3 388/1/3
f 390/1/3 381/1/3 277/1/3
f 390/2/3 382/2/3 381/2/3
f 391/1/3 383/1/3 382/1/3
f 391/2/3 382/2/3 390/2/3
f 392/2/3 384/2/3 383/2/3
f 392/1/3 383/1/3 391/1/3
f 393/1/3 385/1/3 384/1/3
f 393/2/3 384/2/3 392/2/3
f 394/2/3 386/2/3 385/2/3
f 394/1/3 385/1/3 393/1/3
f 395/1/3 388/1/3 386/1/3
f 395/2/3 386/2/3 394/2/3
f 396/1/3 388/1/3 395/1/3
f 397/1/3 390/1/3 277/1/3
f 404/1/3 403/1/3 402/1/3
f 405/1/3 403/1/3 404/1/3
f 406/1/3 397/1/3 277/1/3
f 406/2/3 398/2/3 397/2/3
f 407/1/3 399/1/3 398/1/3
f 407/2/3 398/2/3 406/2/3
f 408/2/3 400/2/3 399/2/3
f 408/1/3 399/1/3 407/1/3
f 409/1/3 401/1/3 400/1/3
f 409/2/3 400/2/3 408/2/3
f 410/2/3 402/2/3 401/2/3
f 410/1/3 401/1/3 409/1/3
f 411/1/3 404/1/3 402/1/3
f 411/2/3 402/2/3 410/2/3
f 412/1/3 404/1/3 411/1/3
f 413/1/3 406/1/3 277/1/3
f 414/1/3 406/1/3 413/1/3
f 415/1/4 416/1/4 417/1/4
f 422/1/4 423/1/4 424/1/4
f 415/1/4 417/1/4 426/1/4
f 417/2/4 418/2/4 426/2/4
f 418/1/4 419/1/4 427/1/4
f 426/2/4 418/2/4 427/2/4
f 419/2/4 420/2/4 428/2/4
f 427/1/4 419/1/4 428/1/4
f 420/1/4 421/1/4 429/1/4
f 428/2/4 420/2/4 429/2/4
f 421/2/4 422/2/4 430/2/4
f 429/1/4 421/1/4 430/1/4
f 424/1/4 425/1/4 431/1/4
f 430/2/4 422/2/4 431/2/4
f 422/1/4 424/1/4 431/1/4
f 431/1/4 425/1/4 432/1/4
f 415/1/4 426/1/4 433/1/4
f 438/1/4 439/1/4 440/1/4
f 415/1/4 433/1/4 442/1/4
f 433/2/4 434/2/4 442/2/4
f 434/1/4 435/1/4 443/1/4
f 442/2/4 434/2/4 443/2/4
f 435/2/4 436/2/4 444/2/4
f 443/1/4 435/1/4 444/1/4
f 436/1/4 437/1/4 445/1/4
f 444/2/4 436/2/4 445/2/4
f 437/2/4 438/2/4 446/2/4
f 445/1/4 437/1/4 446/1/4
f 440/1/4 441/1/4 447/1/4
f 446/2/4 438/2/4 447/2/4
f 438/1/4 440/1/4 447/1/4
f 447/1/4 441/1/4 448/1/4
f 415/1/4 442/1/4 449/1/4
f 415/1/4 449/1/4 456/1/4
f 449/2/4 450/2/4 456/2/4
f 450/1/4 451/1/4 457/1/4
f 456/2/4 450/2/4 457/2/4
f 451/2/4 452/2/4 458/2/4
f 457/1/4 451/1/4 458/1/4
f 452/1/4 453/1/4 459/1/4
f 458/2/4 452/2/4 459/2/4
f 453/2/4 454/2/4 460/2/4
f 459/1/4 453/1/4 460/1/4
f 454/1/4 455/1/4 461/1/4
f 460/2/4 454/2/4 461/2/4
f 461/1/4 455/1/4 462/1/4
f 415/1/4 456/1/4 463/1/4
f 415/1/4 463/1/4 470/1/4
f 463/2/4 464/2/4 470/2/4
f 464/1/4 465/1/4 471/1/4
f 470/2/4 464/2/4 471/2/4
f 465/2/4 466/2/4 472/2/4
f 471/1/4 465/1/4 472/1/4
f 466/1/4 467/1/4 473/1/4
f 472/2/4 466/2/4 473/2/4
f 467/2/4 468/2/4 474/2/4
f 473/1/4 467/1/4 474/1/4
f 468/1/4 469/1/4 475/1/4
f 474/2/4 468/2/4 475/2/4
f 475/1/4 469/1/4 476/1/4
f 415/1/4 470/1/4 477/1/4
f 415/1/4 477/1/4 484/1/4
f 477/2/4 478/2/4 484/2/4
f 478/1/4 479/1/4 485/1/4
f 484/2/4 478/2/4 485/2/4
f 479/2/4 480/2/4 486/2/4
f 485/1/4 479/1/4 486/1/4
f 480/1/4 481/1/4 487/1/4
f 486/2/4 480/2/4 487/2/4
f 481/2/4 482/2/4 488/2/4
f 487/1/4 481/1/4 488/1/4
f 482/1/4 483/1/4 489/1/4
f 488/2/4 482/2/4 489/2/4
f 489/1/4 483/1/4 490/1/4
f 415/1/4 484/1/4 491/1/4
f 415/1/4 491/1/4 498/1/4
f 491/2/4 492/2/4 498/2/4
f 492/1/4 493/1/4 499/1/4
f 498/2/4 492/2/4 499/2/4
f 493/2/4 494/2/4 500/2/4
f 499/1/4 493/1/4 500/1/4
f 494/1/4 495/1/4 501/1/4
f 500/2/4 494/2/4 501/2/4
f 495/2/4 496/2/4 502/2/4
f 501/1/4 495/1/4 502/1/4
f 496/1/4 497/1/4 503/1/4
f 502/2/4 496/2/4 503/2/4
f 503/1/4 497/1/4 504/1/4
f 415/1/4 498/1/4 505/1/4
f 415/1/4 505/1/4 512/1/4
f 505/2/4 506/2/4 512/2/4
f 506/1/4 507/1/4 513/1/4
f 512/2/4 506/2/4 513/2/4
f 507/2/4 508/2/4 514/2/4
f 513/1/4 507/1/4 514/1/4
f 508/1/4 509/1/4 515/1/4
f 514/2/4 508/2/4 515/2/4
f 509/2/4 510/2/4 516/2/4
f 515/1/4 509/1/4 516/1/4
f 510/1/4 511/1/4 517/1/4
f 516/2/4 510/2/4 517/2/4
f 517/1/4 511/1/4 518/1/4
f 415/1/4 512/1/4 519/1/4
f 524/1/4 525/1/4 526/1/4
f 526/1/4 525/1/4 527/1/4
f 415/1/4 519/1/4 528/1/4
f 519/2/4 520/2/4 528/2/4
f 520/1/4 521/1/4 529/1/4
f 528/2/4 520/2/4 529/2/4
f 521/2/4 522/2/4 530/2/4
f 529/1/4 521/1/4 530/1/4
f 522/1/4 523/1/4 531/1/4
f 530/2/4 522/2/4 531/2/4
f 523/2/4 524/2/4 532/2/4
f 531/1/4 523/1/4 532/1/4
f 524/1/4 526/1/4 533/1/4
f 532/2/4 524/2/4 533/2/4
f 533/1/4 526/1/4 534/1/4
f 415/1/4 528/1/4 535/1/4
f 540/1/4 541/1/4 542/1/4
f 542/1/4 541/1/4 543/1/4
f 415/1/4 535/1/4 544/1/4
f 535/2/4 536/2/4 544/2/4
f 536/1/4 537/1/4 545/1/4
f 544/2/4 536/2/4 545/2/4
f 537/2/4 538/2/4 546/2/4
f 545/1/4 537/1/4 546/1/4
f 538/1/4 539/1/4 547/1/4
f 546/2/4 538/2/4 547/2/4
f 539/2/4 540/2/4 548/2/4
f 547/1/4 539/1/4 548/1/4
f 540/1/4 542/1/4 549/1/4
f 548/2/4 540/2/4 549/2/4
f 549/1/4 542/1/4 550/1/4
f 415/1/4 544/1/4 551/1/4
f 551/1/4 544/1/4 552/1/4
f 555/1/5 554/1/5 553/1/5
f 556/1/5 554/1/5 555/1/5
f 557/1/6 558/1/6 577/1/6
f 577/1/6 558/1/6 578/1/6
f 559/1/6 560/1/6 579/1/6
f 579/1/6 560/1/6 580/1/6
f 561/1/6 562/1/6 581/1/6
f 581/1/6 562/1/6 582/1/6
f 563/1/6 564/1/6 583/1/6
f 583/1/6 564/1/6 584/1/6
f 565/1/6 566/1/6 585/1/6
f 585/1/6 566/1/6 586/1/6
f 567/1/6 568/1/6 587/1/6
f 587/1/6 568/1/6 588/1/6
f 569/1/6 570/1/6 589/1/6
f 589/1/6 570/1/6 590/1/6
f 571/1/6 572/1/6 591/1/6
f 591/1/6 572/1/6 592/1/6
f 573/1/6 574/1/6 593/1/6
f 593/1/6 574/1/6 594/1/6
f 575/1/6 576/1/6 595/1/6
f 595/1/6 576/1/6 596/1/6
f 597/1/6 598/1/6 601/1/6
f 601/1/6 598/1/6 602/1/6
f 599/1/6 600/1/6 603/1/6
f 603/1/6 600/1/6 604/1/6
f 605/1/6 606/1/6 609/1/6
f 609/1/6 606/1/6 610/1/6
f 607/1/6 608/1/6 611/1/6
f 611/1/6 608/1/6 612/1/6
f 613/1/6 614/1/6 617/1/6
f 617/1/6 614/1/6 618/1/6
f 615/1/6 616/1/6 619/1/6
f 619/1/6 616/1/6 620/1/6
f 621/1/6 622/1/6 625/1/6
f 625/1/6 622/1/6 626/1/6
f 623/1/6 624/1/6 627/1/6
f 627/1/6 624/1/6 628/1/6
f 629/1/6 630/1/6 633/1/6
f 633/1/6 630/1/6 634/1/6
f 631/1/6 632/1/6 635/1/6
f 635/1/6 632/1/6 636/1/6
f 637/1/6 638/1/6 641/1/6
f 641/1/6 638/1/6 642/1/6
f 639/1/6 640/1/6 643/1/6
f 643/1/6 640/1/6 644/1/6
f 645/1/6 646/1/6 647/1/6
f 647/1/6 646/1/6 648/1/6
